<?xml version="1.0" encoding="UTF-8"?>
<svg version="1.1" xmlns="http://www.w3.org/2000/svg" width="1024" height="1024">
<path d="M0 0 C337.92 0 675.84 0 1024 0 C1024 337.92 1024 675.84 1024 1024 C686.08 1024 348.16 1024 0 1024 C0 686.08 0 348.16 0 0 Z " fill="#B5E7FC" transform="translate(0,0)"/>
<path d="M0 0 C0.78111353 -0.00235223 1.56222705 -0.00470446 2.36701068 -0.00712797 C4.99415781 -0.01380464 7.62125533 -0.01336015 10.24841022 -0.01294994 C12.14713231 -0.01624938 14.04585369 -0.01997512 15.94457418 -0.02409142 C21.17009788 -0.03411018 26.39561009 -0.03782801 31.62114203 -0.04048073 C37.2538865 -0.04438407 42.88662188 -0.0539623 48.51936054 -0.0626936 C62.12515295 -0.08245571 75.73094611 -0.09252326 89.33674929 -0.10142139 C95.74249744 -0.10580413 102.14824477 -0.11117093 108.55399227 -0.11641026 C129.84480323 -0.13342122 151.13561325 -0.14794106 172.42642975 -0.155159 C173.80307375 -0.15563375 175.17971775 -0.15610964 176.55636175 -0.15658666 C177.23904698 -0.15682303 177.92173221 -0.15705941 178.62510487 -0.15730295 C182.08387532 -0.15850414 185.54264577 -0.15971959 189.00141621 -0.16094494 C189.68781667 -0.16118509 190.37421713 -0.16142524 191.0814176 -0.16167267 C213.33746422 -0.16956606 235.59345756 -0.1929996 257.84948092 -0.22550088 C281.38344544 -0.25980562 304.91736727 -0.27950954 328.45136052 -0.28280324 C341.2787047 -0.28496957 354.10597055 -0.29373643 366.93329144 -0.31926441 C377.85552442 -0.34095079 388.77766003 -0.3490319 399.69991209 -0.33929763 C405.27277012 -0.33474718 410.84542714 -0.33668272 416.41825771 -0.35605907 C421.52154598 -0.37364971 426.624486 -0.37272618 431.72777776 -0.35716178 C433.57234736 -0.35477951 435.41694083 -0.35914126 437.26147392 -0.37099043 C450.30114898 -0.44955718 460.39264191 0.53084988 470.23652363 9.85297108 C473.44225271 13.55286393 475.44225745 17.59691708 477.21308613 22.13422108 C477.55818666 22.93210356 477.9032872 23.72998604 478.25884533 24.55204678 C479.62902147 29.69562245 479.48120611 34.64038799 479.45359516 39.9411974 C479.45616322 41.7331554 479.45616322 41.7331554 479.45878315 43.56131458 C479.4615149 46.8757302 479.45525236 50.1899092 479.44523159 53.50429627 C479.4364917 57.13387524 479.43942124 60.76344833 479.44086742 64.39303493 C479.44193033 71.4371461 479.43269969 78.48120624 479.41986477 85.5253043 C479.40546181 93.67400099 479.40387511 101.82266705 479.40229511 109.97137928 C479.39179548 131.4840013 479.36387324 152.99661195 479.33808613 174.50922108 C479.29683613 222.56547108 479.25558613 270.62172108 479.21308613 320.13422108 C310.58308613 320.13422108 141.95308613 320.13422108 -31.78691387 320.13422108 C-31.86941387 271.85109608 -31.95191387 223.56797108 -32.03691387 173.82172108 C-32.07332989 158.57299793 -32.1097459 143.32427479 -32.14726543 127.61346912 C-32.16533184 109.00104237 -32.16533184 109.00104237 -32.16868877 100.28932667 C-32.1724172 94.20141383 -32.18708253 88.11364802 -32.20921612 82.02577686 C-32.23471829 75.00096004 -32.24624814 67.9762841 -32.24069367 60.95142065 C-32.23828897 57.35958775 -32.24204146 53.76806955 -32.26377439 50.17629468 C-32.28694399 46.32354466 -32.27886117 42.47120966 -32.26793194 38.61839771 C-32.2795826 37.50682206 -32.29123325 36.39524641 -32.30323696 35.24998665 C-32.22278765 24.67955638 -29.3813207 14.79553898 -21.78691387 7.13422108 C-14.63559764 1.34746695 -9.12673166 -0.01871262 0 0 Z " fill="#FDFDFD" transform="translate(276.78691387176514,277.86577892303467)"/>
<path d="M0 0 C1.92223791 -0.00345927 3.84447384 -0.00822564 5.76670563 -0.01418173 C11.03413243 -0.02668458 16.30139578 -0.02052451 21.5688231 -0.01122308 C27.25537606 -0.00442995 32.94190109 -0.0149152 38.62844849 -0.02316284 C49.76315172 -0.03650002 60.89779428 -0.03362233 72.03249989 -0.02492492 C81.08346085 -0.01814806 90.13440482 -0.01723167 99.18536758 -0.02049637 C100.47386635 -0.02095607 101.76236511 -0.02141577 103.08990929 -0.0218894 C105.70754718 -0.02284858 108.32518507 -0.02382122 110.94282295 -0.02480717 C134.78739817 -0.03311737 158.63193893 -0.02450062 182.47650866 -0.00877938 C204.22915866 0.0054536 225.98175597 0.00418595 247.73440552 -0.01016235 C272.1880554 -0.02623845 296.64167144 -0.03253387 321.09532654 -0.02332556 C323.70391281 -0.02236993 326.31249908 -0.02142682 328.92108536 -0.02049637 C330.8462408 -0.01980213 330.8462408 -0.01980213 332.81028827 -0.01909386 C341.8477441 -0.01650532 350.8851812 -0.02087212 359.92263412 -0.02793503 C370.94020669 -0.0363562 381.95771515 -0.03405699 392.97528039 -0.0180928 C398.59496183 -0.01021796 404.21453646 -0.0071051 409.83421707 -0.01704025 C414.98239721 -0.02600402 420.13037188 -0.02102646 425.27853347 -0.0051076 C427.13711474 -0.00176689 428.99571349 -0.00343779 430.85428344 -0.01073496 C452.85998587 -0.09048096 469.53608761 5.41880594 485.74172974 20.80673218 C504.99826711 40.56077887 505.79923276 63.76271104 505.72459996 89.87332463 C505.71754485 93.87482255 505.73365327 97.87624203 505.74659729 101.87771606 C505.76813821 109.69688494 505.76813594 117.51590772 505.75997175 125.33509646 C505.75364839 131.69613044 505.75483009 138.05712211 505.76124382 144.41815567 C505.76214548 145.32666003 505.76304713 146.23516439 505.76397611 147.17119918 C505.76582749 149.01736148 505.76769005 150.86352378 505.76956367 152.70968606 C505.78610776 169.98625707 505.77745202 187.2627462 505.76057809 204.53931226 C505.74588577 220.31099768 505.76050897 236.0824925 505.78934825 251.85415338 C505.81881024 268.08852572 505.82969465 284.3228103 505.82016605 300.55720818 C505.81914361 302.39684366 505.81814899 304.23647915 505.81718254 306.07611465 C505.81670615 306.98101842 505.81622976 307.88592219 505.81573894 308.81824728 C505.81358369 315.16293221 505.8233313 321.50753321 505.83795357 327.85219955 C505.85555512 335.59693981 505.85524822 343.34143734 505.83260191 351.08616839 C505.82152996 355.02982702 505.8181348 358.97305926 505.83690262 362.91669846 C505.94956265 388.47712023 503.91500426 410.45809836 486.18704224 430.38095093 C485.58247192 431.0796228 484.97790161 431.77829468 484.35501099 432.49813843 C473.45505515 444.293038 457.76468007 451.36049653 441.84642601 452.65198326 C438.33362713 452.74613654 434.83254835 452.75270522 431.31863403 452.7215271 C429.34068848 452.72218422 429.34068848 452.72218422 427.32278442 452.72285461 C423.751227 452.72370574 420.17997971 452.70622554 416.60849357 452.68513274 C412.85961263 452.66621643 409.11072245 452.66460384 405.36180115 452.66105652 C398.2825146 452.65177953 391.20336915 452.6272255 384.12414438 452.59700805 C376.05630177 452.56332762 367.98845198 452.54694394 359.92055643 452.53192174 C343.34263613 452.50067136 326.76485727 452.44799672 310.18704224 452.38095093 C310.82626818 454.95466656 311.46655405 457.5281107 312.10745239 460.10140991 C312.28756363 460.82705894 312.46767487 461.55270798 312.65324402 462.30034637 C313.83900488 467.05684708 315.12371602 471.75613959 316.56204224 476.44345093 C318.93677989 484.30022595 320.98091098 492.2300528 323.01321411 500.1812439 C324.59242662 506.29296122 326.33757087 512.24844118 328.52297974 518.17391968 C329.18704224 520.38095093 329.18704224 520.38095093 329.18704224 524.38095093 C329.93276489 524.34953003 330.67848755 524.31810913 331.44680786 524.28573608 C334.85990467 524.16020785 338.27251477 524.08272296 341.68704224 524.00595093 C343.44661255 523.93054077 343.44661255 523.93054077 345.24172974 523.85360718 C352.12776401 523.73755042 356.43283642 524.20162718 361.71633911 528.79476929 C364.95671981 532.28958227 366.07900659 535.17095169 366.49954224 539.88095093 C366.01374468 545.32188357 364.50133089 550.00135521 361.18704224 554.38095093 C355.68808587 558.06622727 350.48860914 557.80791402 344.11051941 557.77536011 C342.99143847 557.78145121 341.87235754 557.78754231 340.71936506 557.793818 C336.96768374 557.8104735 333.21634087 557.80566839 329.46463013 557.8008728 C326.7756178 557.8082116 324.08663089 557.8167044 321.39762878 557.82653809 C314.85081934 557.8475803 308.30409847 557.85213366 301.7572592 557.8503502 C296.43565472 557.84904208 291.11407785 557.85284928 285.79247856 557.86027527 C284.25904368 557.86237448 282.72560879 557.86447208 281.1921739 557.86656809 C280.04729615 557.86813338 280.04729615 557.86813338 278.87928956 557.86973029 C264.44825411 557.88862745 250.01726951 557.88758395 235.58622681 557.88076097 C222.3866104 557.87518466 209.18718803 557.89601552 195.98761696 557.92912143 C182.43061771 557.96285967 168.87371142 557.97802669 155.3166694 557.97340441 C147.70685582 557.97116 140.09722163 557.97639868 132.48744392 558.001297 C126.0095238 558.02231179 119.53188144 558.02590046 113.0539499 558.00699741 C109.74961597 557.99784068 106.44590731 557.99940584 103.14159393 558.01735306 C99.55743715 558.03547828 95.97466303 558.02284408 92.39054871 558.00241089 C91.34891148 558.01492874 90.30727426 558.02744658 89.23407227 558.04034376 C82.5703648 557.95879681 79.15109183 556.90892235 74.18704224 552.38095093 C71.112415 547.22351169 70.24967935 542.2655068 71.18704224 536.38095093 C72.95421757 531.54497111 75.92062361 528.22523001 80.18704224 525.38095093 C83.30547474 524.34147343 85.4617981 524.26600255 88.73001099 524.28329468 C89.80315552 524.28651733 90.87630005 524.28973999 91.98196411 524.2930603 C93.10151489 524.30143921 94.22106567 524.30981812 95.37454224 524.31845093 C97.07127075 524.32521851 97.07127075 524.32521851 98.80227661 524.3321228 C101.5972515 524.34391595 104.39212044 524.36037443 107.18704224 524.38095093 C107.36589966 523.64521851 107.54475708 522.90948608 107.72903442 522.15145874 C109.46673677 515.09049744 111.37296816 508.10281627 113.43704224 501.13095093 C114.05165778 499.03851247 114.66624011 496.94606426 115.28079224 494.85360718 C115.59403442 493.79029175 115.90727661 492.72697632 116.23001099 491.63143921 C117.80588007 486.27911244 119.37200267 480.92395232 120.93704224 475.56845093 C121.21838013 474.60971069 121.49971802 473.65097046 121.7895813 472.66317749 C122.05996216 471.73859741 122.33034302 470.81401733 122.60891724 469.86141968 C122.84191528 469.06630981 123.07491333 468.27119995 123.31497192 467.45199585 C124.14305535 464.53585323 124.94503429 461.61391406 125.74154663 458.68901062 C126.14739927 457.19917144 126.14739927 457.19917144 126.56145096 455.6792345 C126.87111864 454.54158413 126.87111864 454.54158413 127.18704224 453.38095093 C126.10092431 453.37875109 126.10092431 453.37875109 124.99286461 453.37650681 C107.32104107 453.33934927 89.64942533 453.28021675 71.97775841 453.19704819 C63.43163134 453.15734951 54.88559513 453.12491067 46.33938599 453.10995483 C38.88481732 453.09689051 31.43044934 453.06980499 23.97599375 453.02633786 C20.03403031 453.00382974 16.0923134 452.98803378 12.15028 452.98906708 C8.42861092 452.98982006 4.70748459 452.97161755 0.98595619 452.9397831 C-1.00802724 452.92739974 -3.00210236 452.93429805 -4.99610901 452.9420929 C-23.81248765 452.72794542 -40.88047204 445.48701993 -54.16061401 432.23641968 C-58.19361203 427.89456173 -61.62459147 423.37081567 -64.81295776 418.38095093 C-65.36725464 417.5430603 -65.92155151 416.70516968 -66.49264526 415.84188843 C-76.66570963 399.08923019 -75.39966022 379.60332706 -75.33585644 360.74319351 C-75.32671624 356.73835028 -75.34081954 352.73357394 -75.35177612 348.72874451 C-75.3694708 340.9056974 -75.36576217 333.08280464 -75.35412556 325.25975173 C-75.34505626 318.89681901 -75.34388227 312.53392924 -75.34822083 306.1709919 C-75.34883376 305.26204558 -75.34944669 304.35309927 -75.3500782 303.41660913 C-75.35135722 301.56955689 -75.35265407 299.72250467 -75.35396856 297.87545247 C-75.36534767 280.59607217 -75.35230236 263.31677706 -75.3307671 246.03741074 C-75.31289552 231.2400163 -75.3160059 216.44274741 -75.33444214 201.64535522 C-75.35589095 184.42216461 -75.36425245 167.19904845 -75.35199308 149.97584635 C-75.35071901 148.13626231 -75.34946153 146.29667826 -75.34822083 144.45709419 C-75.34760372 143.55220399 -75.34698662 142.64731379 -75.34635082 141.71500267 C-75.34291016 135.36587577 -75.34869838 129.01679645 -75.35813904 122.66767693 C-75.36940497 114.92146369 -75.36622293 107.1754124 -75.34501606 99.42921751 C-75.3345675 95.48383251 -75.33027673 91.53871666 -75.34361267 87.5933342 C-75.45877546 50.44021129 -75.45877546 50.44021129 -66.62545776 36.00595093 C-66.23817505 35.34732056 -65.85089233 34.68869019 -65.45187378 34.01010132 C-61.90241353 28.1616973 -57.71721207 23.15193745 -52.81295776 18.38095093 C-52.22514526 17.76091187 -51.63733276 17.1408728 -51.03170776 16.50204468 C-46.84775424 12.40066918 -42.11938288 9.76115881 -36.93795776 7.13095093 C-36.29012329 6.80143433 -35.64228882 6.47191772 -34.974823 6.13241577 C-32.94421884 5.14673455 -30.89358258 4.25611487 -28.81295776 3.38095093 C-28.17414197 3.11090095 -27.53532617 2.84085097 -26.87715232 2.56261766 C-18.16982169 -0.5556195 -9.11330009 -0.03568748 0 0 Z M-30.95358276 42.14657593 C-36.47941022 48.78685598 -39.9396804 56.83619098 -39.93600559 65.4646492 C-39.93799646 66.49705482 -39.93998734 67.52946045 -39.94203854 68.59315109 C-39.93912587 69.72511539 -39.93621321 70.8570797 -39.93321228 72.02334595 C-39.9340683 73.22441986 -39.93492432 74.42549377 -39.93580627 75.66296387 C-39.93717515 79.00462375 -39.93403241 82.34622533 -39.92903049 85.68787819 C-39.92466942 89.34380237 -39.92612474 92.99972503 -39.92684841 96.65565109 C-39.92738048 103.7551381 -39.92275916 110.85461248 -39.91634708 117.95409624 C-39.90915325 126.16457901 -39.90835267 134.37505416 -39.90756226 142.58554077 C-39.90230974 164.26734616 -39.88834866 185.94914873 -39.87545776 207.63095093 C-39.85483276 256.05845093 -39.83420776 304.48595093 -39.81295776 354.38095093 C128.81704224 354.38095093 297.44704224 354.38095093 471.18704224 354.38095093 C471.29016724 306.46907593 471.39329224 258.55720093 471.49954224 209.19345093 C471.54506226 194.06734985 471.59058228 178.94124878 471.63748169 163.35678101 C471.65420427 149.79320811 471.65420427 149.79320811 471.66426086 136.22962952 C471.66891752 130.19010152 471.68723249 124.15080562 471.71492004 118.11134338 C471.74683348 111.13973867 471.76120184 104.16835603 471.75426699 97.19667779 C471.75126546 93.63319737 471.75589579 90.07021275 471.78311789 86.50682414 C471.80809521 82.68071947 471.80195448 78.85584349 471.78831482 75.02970886 C471.80287814 73.93173823 471.81744146 72.8337676 471.8324461 71.70252514 C471.72600869 60.54641099 468.28411637 50.36347627 460.44485474 42.25595093 C453.63288169 36.59894909 446.36200152 34.22836528 437.64343071 34.24952316 C436.86432528 34.24747053 436.08521984 34.2454179 435.28250515 34.24330306 C432.65015383 34.23761133 430.01785447 34.23909298 427.38549805 34.24050903 C425.48778953 34.23792663 423.59008156 34.23491383 421.69237435 34.23150563 C416.46039968 34.22341751 411.22843871 34.22164505 405.99645853 34.22090816 C400.3602909 34.21906073 394.72413043 34.21151492 389.08796692 34.20477295 C376.75528992 34.19117578 364.42261617 34.18516263 352.08993292 34.18076229 C344.39227193 34.17800195 336.6946122 34.17376495 328.99695206 34.16925812 C307.69335175 34.15706316 286.38975276 34.14672922 265.08614922 34.14338303 C263.70817006 34.14316139 262.3301909 34.14293961 260.95221175 34.14271767 C259.57089095 34.14249703 258.18957015 34.14227655 256.80824935 34.14205623 C254.03705271 34.14161367 251.26585607 34.14116656 248.49465942 34.14071655 C247.80756243 34.14060716 247.12046544 34.14049777 246.41254733 34.14038507 C224.13615534 34.13675488 201.8597959 34.12083698 179.58341638 34.09752619 C156.03428076 34.07292859 132.48517033 34.05921692 108.93602002 34.05801511 C96.09807437 34.05709776 83.26017132 34.05133036 70.4222374 34.0331955 C59.49005636 34.01780741 48.55793109 34.01266638 37.62574129 34.0209336 C32.04697938 34.0248448 26.46832982 34.02388754 20.88958168 34.00987625 C15.78199738 33.99716556 10.67461019 33.99831002 5.56702627 34.01046696 C3.71972525 34.01242888 1.8724104 34.00932276 0.02512883 34.0006226 C-16.77443818 33.84624135 -16.77443818 33.84624135 -30.95358276 42.14657593 Z " fill="#374B5A" transform="translate(284.8129577636719,243.61904907226563)"/>
<path d="M0 0 C168.3 0 336.6 0 510 0 C507.6456656 11.77167198 505.19437415 18.50151403 496 26 C489.91704423 29.76254127 484.60756824 31.14877205 477.47200584 31.13422108 C476.30588025 31.13774942 476.30588025 31.13774942 475.11619657 31.14134905 C472.48959044 31.14804984 469.86303365 31.1475805 467.23641968 31.14717102 C465.34283581 31.15046898 463.44925264 31.1541944 461.55567038 31.1583125 C456.33509894 31.16834844 451.114539 31.17205185 445.89395928 31.17470181 C440.27006048 31.17860015 434.64617081 31.18817882 429.02227783 31.19691467 C415.43196998 31.21669255 401.84166136 31.22674704 388.25134271 31.23564246 C381.85492526 31.24002326 375.45850863 31.24539061 369.06209183 31.25063133 C347.80481555 31.26764505 326.54754023 31.28216471 305.29025841 31.28938007 C303.91527684 31.28985483 302.54029527 31.29033072 301.1653137 31.29080774 C300.48344282 31.29104411 299.80157193 31.29128049 299.09903829 31.29152403 C295.64431329 31.29272523 292.18958828 31.29394068 288.73486328 31.29516602 C288.04926113 31.29540617 287.36365898 31.29564632 286.65728101 31.29589374 C264.42938028 31.30378633 242.20153292 31.32721681 219.97365549 31.35972196 C196.47574728 31.39402163 172.97788181 31.41373022 149.47994483 31.41702431 C136.66992905 31.41919126 123.8599917 31.42796691 111.04999924 31.45348549 C100.14159632 31.47516544 89.23329086 31.48325622 78.32486884 31.47351871 C72.75822435 31.46896617 67.19178108 31.47091576 61.62516403 31.49028015 C56.52863296 31.5078563 51.43245073 31.50695912 46.33591624 31.49138286 C44.49265052 31.48899835 42.64936101 31.49337385 40.80613177 31.50521151 C28.16913822 31.58133894 19.23060077 30.64255894 9.71484375 21.7109375 C4.79190125 16.79920899 1.9613631 11.67698075 0 5 C0 3.35 0 1.7 0 0 Z " fill="#FBFCFC" transform="translate(245,630)"/>
<path d="M0 0 C1.22644557 0.00138269 1.22644557 0.00138269 2.47766781 0.00279331 C3.88068645 0.00073132 3.88068645 0.00073132 5.31204891 -0.00137234 C6.34638561 0.00222294 7.38072231 0.00581821 8.44640255 0.00952244 C9.52919491 0.00937641 10.61198727 0.00923038 11.72759151 0.00907993 C15.32585778 0.0097796 18.92407301 0.0175745 22.52233028 0.02539158 C25.00954822 0.02725557 27.49676652 0.02867956 29.98398495 0.0296793 C35.87363594 0.03311433 41.76326794 0.04100506 47.65291113 0.05102879 C55.01367777 0.06328536 62.37444668 0.06866992 69.73522091 0.0742197 C82.87129802 0.08495968 96.00735986 0.10184693 109.14342403 0.12304783 C109.34346696 0.86920007 109.54350988 1.61535231 109.74961472 2.38411522 C110.66563916 5.7990192 111.58286671 9.21359893 112.50011349 12.62817478 C112.8147681 13.80190899 113.12942272 14.9756432 113.45361233 16.18494511 C115.62578592 24.26660821 117.89872483 32.30306847 120.33092403 40.31054783 C124.73510545 55.02055628 124.73510545 55.02055628 126.64342403 62.06054783 C126.94248653 63.16269627 127.24154903 64.2648447 127.54967403 65.40039158 C128.14342403 68.12304783 128.14342403 68.12304783 128.14342403 72.12304783 C78.64342403 72.12304783 29.14342403 72.12304783 -21.85657597 72.12304783 C-20.73155041 64.24786894 -20.73155041 64.24786894 -19.73670292 60.71435642 C-19.51589558 59.92177433 -19.29508823 59.12919224 -19.06758976 58.31259251 C-18.82908802 57.47402714 -18.59058628 56.63546177 -18.34485722 55.77148533 C-17.96879589 54.4294051 -17.96879589 54.4294051 -17.58513737 53.06021214 C-16.78394108 50.20496948 -15.97657395 47.35151388 -15.16907597 44.49804783 C-14.64589185 42.63618036 -14.12310225 40.77420198 -13.60071659 38.91211033 C-12.29555856 34.26505453 -10.98146089 29.62058296 -9.66425419 24.97692966 C-8.82500108 22.01147989 -7.99169875 19.04439579 -7.15882206 16.07714939 C-6.61421518 14.14709341 -6.06946131 12.21707889 -5.52454472 10.28711033 C-5.27118855 9.38044621 -5.01783237 8.47378208 -4.75679874 7.53964329 C-4.52184193 6.71074589 -4.28688511 5.88184849 -4.04480839 5.02783298 C-3.83885548 4.29569584 -3.63290257 3.56355869 -3.42070866 2.80923557 C-2.65389354 0.51723182 -2.44769533 0.1622253 0 0 Z " fill="#FCFCFD" transform="translate(449.85657596588135,695.8769521713257)"/>
<path d="M0 0 C0.80196159 -0.00706559 1.60392318 -0.01413118 2.43018663 -0.02141088 C3.3054697 -0.0189958 4.18075278 -0.01658071 5.08255959 -0.01409245 C6.48403628 -0.02194746 6.48403628 -0.02194746 7.91382563 -0.02996117 C11.05211403 -0.04499185 14.19023983 -0.045667 17.32856178 -0.04633427 C19.57554844 -0.05395363 21.82253248 -0.06238074 24.06951332 -0.07155704 C30.17899362 -0.09352967 36.28842386 -0.10230457 42.39793921 -0.10738349 C46.2132149 -0.11102351 50.02847741 -0.11726168 53.84374809 -0.12438488 C64.40900318 -0.14384192 74.97424731 -0.16035436 85.53952026 -0.16326141 C86.21545338 -0.16344898 86.8913865 -0.16363655 87.58780245 -0.16382981 C88.95805176 -0.16419606 90.32830107 -0.16455975 91.69855039 -0.16492092 C92.37873442 -0.16510373 93.05891846 -0.16528654 93.75971413 -0.16547489 C94.7812365 -0.16574572 94.7812365 -0.16574572 95.82339568 -0.16602201 C106.86076947 -0.16956443 117.89794824 -0.19659209 128.93525438 -0.23397278 C140.26945154 -0.27205161 151.60352039 -0.29097772 162.93779433 -0.29172093 C169.30070117 -0.29251499 175.66335641 -0.3013135 182.02620506 -0.32971859 C188.0098761 -0.35583319 193.99308572 -0.35814109 199.97678757 -0.34206295 C202.17380909 -0.34024326 204.37085674 -0.34698575 206.5678215 -0.36288166 C209.56571584 -0.3832515 212.56198193 -0.37284335 215.55985451 -0.35466862 C216.43067614 -0.36786858 217.30149777 -0.38106855 218.19870794 -0.39466852 C222.36544836 -0.33691148 225.12662454 -0.03537993 228.4646492 2.58363914 C231.57803276 5.9388203 232.10810465 7.7025143 231.94819069 12.26006222 C229.01148183 17.72841665 229.01148183 17.72841665 225.94819069 19.26006222 C222.93371543 19.36493265 219.9419884 19.4078549 216.92698097 19.40723324 C215.50757487 19.41274827 215.50757487 19.41274827 214.0594939 19.41837472 C210.86890437 19.42944276 207.67834736 19.43326064 204.48774147 19.43706417 C202.20825026 19.44332636 199.92876007 19.44997294 197.64927101 19.45697689 C191.44271079 19.474407 185.23615828 19.48494368 179.02957964 19.49318242 C175.15570662 19.49832726 171.28183602 19.50440316 167.40796471 19.51069355 C156.68666061 19.52756466 145.96536025 19.54220058 135.24404526 19.54944229 C132.46134502 19.55135224 129.6786448 19.55327257 126.8959446 19.55522823 C125.85848102 19.55595384 125.85848102 19.55595384 124.80005859 19.55669411 C113.58988009 19.5649987 102.37980814 19.59034304 91.1696762 19.62280891 C79.66606033 19.65585378 68.16251467 19.67355567 56.6588496 19.67708653 C50.19764014 19.67944265 43.73659913 19.68847621 37.27543449 19.71354771 C31.19993028 19.73674169 25.12470646 19.74109665 19.04916954 19.73078632 C16.81583412 19.73028877 14.58248531 19.73667338 12.34919167 19.75034237 C9.30690961 19.76792522 6.26564879 19.76102223 3.22336769 19.74780941 C2.33368329 19.75877866 1.44399889 19.7697479 0.52735436 19.78104955 C-5.44304034 19.71817967 -5.44304034 19.71817967 -8.58683014 17.35238075 C-10.86830878 14.09391801 -11.25496588 11.19036049 -11.05180931 7.26006222 C-9.82526458 4.29053287 -8.94713352 2.79751316 -6.19176614 1.14350361 C-3.93983823 0.21383704 -2.42186181 0.00683894 0 0 Z " fill="#344B5B" transform="translate(368.0518093109131,535.7399377822876)"/>
<path d="M0 0 C0.80772767 -0.00453111 1.61545534 -0.00906223 2.44765961 -0.01373065 C5.15755735 -0.02640338 7.86725484 -0.02475243 10.57717896 -0.02310181 C12.5187506 -0.02908525 14.46031986 -0.03589037 16.40188599 -0.04345703 C21.67875589 -0.06114263 26.95556096 -0.06581348 32.23245764 -0.0670886 C36.63610144 -0.0689867 41.0397301 -0.07634318 45.44336808 -0.08343279 C55.83205501 -0.09972396 66.22070728 -0.10460107 76.60940552 -0.10317993 C87.32945229 -0.10197819 98.04929783 -0.123085 108.76929367 -0.15466726 C117.97025084 -0.18080931 127.1711422 -0.1915481 136.37213624 -0.19026911 C141.86869573 -0.18975889 147.36507643 -0.19547572 152.86159897 -0.21662521 C158.03102943 -0.23597273 163.20010989 -0.23615588 168.36955261 -0.22159195 C170.26663346 -0.21949845 172.16373601 -0.22423688 174.06077957 -0.23631287 C176.65128388 -0.2517349 179.24057673 -0.24247782 181.83105469 -0.22705078 C182.95635804 -0.24248147 182.95635804 -0.24248147 184.10439479 -0.25822389 C189.20223627 -0.19116381 192.1198759 1.04519863 196.04251099 4.26742554 C197.64337726 7.46915808 197.54168188 10.79319613 197.04251099 14.26742554 C195.24887188 17.07746014 194.02370163 18.77683021 191.04251099 20.26742554 C188.42143134 20.37178066 185.82653637 20.41522195 183.20491028 20.41459656 C182.38593523 20.41827325 181.56696019 20.42194993 180.72316772 20.42573804 C177.96331691 20.43680111 175.20350372 20.44062313 172.44363403 20.44442749 C170.47118001 20.45069011 168.49872717 20.45733673 166.52627563 20.46434021 C161.156399 20.48176753 155.78653129 20.49230647 150.41663337 20.50054574 C147.06404257 20.50569173 143.71145457 20.51176761 140.35886574 20.51805687 C129.87609957 20.5371129 119.39334047 20.55134374 108.91056031 20.55966884 C96.79730933 20.56944684 84.68424082 20.59577941 72.57105416 20.63616973 C63.21644676 20.6662949 53.86189176 20.68113425 44.50723678 20.68444985 C38.91621269 20.68680426 33.32538344 20.69581552 27.73441124 20.72091103 C22.47556308 20.74413409 17.21703885 20.74844821 11.95815277 20.73814964 C10.02678413 20.73765278 8.09539986 20.74401727 6.16407967 20.75770569 C3.52934937 20.77533644 0.89579269 20.76836234 -1.73893738 20.75517273 C-2.50508954 20.76614198 -3.2712417 20.77711122 -4.06061059 20.78841287 C-8.97562721 20.72891765 -11.51536037 19.78629036 -14.95748901 16.26742554 C-16.50773366 13.16693625 -16.24740917 10.68848336 -15.95748901 7.26742554 C-11.80219478 0.58927409 -7.46338328 -0.03063036 0 0 Z " fill="#3C505D" transform="translate(412.9574890136719,361.7325744628906)"/>
<path d="M0 0 C1.26188896 -0.0076664 1.26188896 -0.0076664 2.54927063 -0.01548767 C5.32263352 -0.02935741 8.09574723 -0.02842911 10.86914062 -0.02612305 C12.80057874 -0.03001094 14.732016 -0.0343458 16.66345215 -0.03910828 C20.70844293 -0.0465645 24.75334642 -0.04628318 28.79833984 -0.04101562 C33.98023865 -0.0352167 39.16178052 -0.05216514 44.3436203 -0.0753603 C48.33105557 -0.09009442 52.31840476 -0.09096986 56.30586243 -0.08785057 C58.21642261 -0.08836378 60.12698761 -0.09360137 62.03752136 -0.10366249 C64.70884399 -0.1160056 67.37946969 -0.10924847 70.05078125 -0.09765625 C70.8384639 -0.10529999 71.62614655 -0.11294373 72.43769836 -0.12081909 C76.97890471 -0.07728437 79.93728124 0.42478691 83.52539062 3.2746582 C85.63751566 6.44284576 85.85695527 8.40685072 86.08398438 12.1418457 C85.13765168 15.755116 83.50123832 17.03077489 80.52539062 19.2746582 C76.71380268 19.97540899 72.96369544 19.85631888 69.09960938 19.76293945 C67.99688187 19.75586472 66.89415436 19.74878998 65.75801086 19.74150085 C62.24227546 19.71355309 58.72814319 19.65080986 55.21289062 19.5871582 C52.82684594 19.56207601 50.44077626 19.53926271 48.0546875 19.51879883 C42.21104325 19.46372512 36.36833148 19.38009365 30.52539062 19.2746582 C29.81309722 22.15132149 29.81309722 22.15132149 29.52539062 25.2746582 C31.14878868 26.98349826 32.81858115 28.64912537 34.52539062 30.2746582 C35.71634638 33.84752545 35.85784521 35.48046115 34.40039062 38.9621582 C31.20837427 42.89897837 28.62579737 44.15845612 23.54882812 44.69458008 C21.99961748 44.72770079 20.44995522 44.74301299 18.90039062 44.7434082 C18.07587402 44.75102173 17.25135742 44.75863525 16.40185547 44.76647949 C14.6637677 44.77725412 12.92561532 44.78014433 11.1875 44.77563477 C8.53340625 44.77466114 5.88219328 44.81633496 3.22851562 44.8605957 C1.5358133 44.86580229 -0.15689904 44.8684909 -1.84960938 44.8684082 C-2.63932129 44.88480347 -3.4290332 44.90119873 -4.24267578 44.91809082 C-8.4341863 44.8656856 -10.02904288 44.6216972 -13.45117188 41.95629883 C-15.9879962 38.59427199 -16.47460938 36.47171341 -16.47460938 32.2746582 C-14.88622003 28.70078218 -13.7582658 27.46376248 -10.47460938 25.2746582 C-9.15460938 25.2746582 -7.83460938 25.2746582 -6.47460938 25.2746582 C-6.47460938 24.2846582 -6.47460938 23.2946582 -6.47460938 22.2746582 C-7.21710938 22.0271582 -7.95960938 21.7796582 -8.72460938 21.5246582 C-11.90309271 20.07989305 -13.42996707 19.12255285 -15.47460938 16.2746582 C-16.65424926 11.98943578 -16.94977356 8.5153647 -15.34960938 4.3371582 C-11.15071317 -0.28162762 -5.87708078 -0.01848458 0 0 Z " fill="#364957" transform="translate(413.474609375,399.725341796875)"/>
<path d="M0 0 C1.10467621 -0.01004562 2.20935242 -0.02009125 3.34750366 -0.03044128 C4.56001801 -0.03627228 5.77253235 -0.04210327 7.02178955 -0.04811096 C8.2984549 -0.05789474 9.57512024 -0.06767853 10.89047241 -0.07775879 C15.12594575 -0.10911972 19.36143858 -0.12940784 23.59698486 -0.14796448 C24.31806458 -0.1512618 25.03914431 -0.15455912 25.78207493 -0.15795636 C32.58496773 -0.18873593 39.38786504 -0.21543778 46.19080734 -0.23237514 C54.88556019 -0.25427819 63.57969527 -0.29624644 72.27420115 -0.36581272 C78.39151437 -0.41309264 84.50866114 -0.43731393 90.62615132 -0.44457203 C94.27801066 -0.44952234 97.92917337 -0.46454191 101.58083344 -0.50431633 C105.65788503 -0.54813964 109.73357247 -0.54427712 113.81085205 -0.53639221 C115.01526947 -0.55639282 116.21968689 -0.57639343 117.46060181 -0.59700012 C123.9296405 -0.54081031 127.84137656 -0.02428274 132.51562881 4.63688564 C134.69973117 7.50714562 134.4526181 9.67177734 134.17510986 13.10594177 C133.44697204 16.09813314 132.1866836 17.43840728 129.67510986 19.16062927 C126.60717172 20.18327532 124.51215918 20.29123237 121.29879761 20.30107117 C120.18281693 20.30678131 119.06683624 20.31249146 117.91703796 20.31837463 C116.69203079 20.31949249 115.46702362 20.32061035 114.20489502 20.32176208 C112.27044777 20.32920944 112.27044777 20.32920944 110.29692078 20.33680725 C106.75761989 20.34992328 103.21833798 20.35637453 99.67901659 20.36081791 C97.46766308 20.36374964 95.25631474 20.36785462 93.04496384 20.37232208 C86.12568773 20.3859943 79.20642345 20.39566256 72.28713477 20.39952397 C64.3005088 20.40400559 56.3140539 20.42155931 48.32747996 20.45052457 C42.15329119 20.47213943 35.97915057 20.48222813 29.80492437 20.48356509 C26.11759004 20.48461318 22.43041659 20.49052163 18.7431221 20.5083847 C14.63001364 20.52792333 10.51726348 20.52357723 6.40411377 20.51707458 C4.5726757 20.53089676 4.5726757 20.53089676 2.70423889 20.54499817 C1.58261856 20.53942902 0.46099823 20.53385986 -0.6946106 20.52812195 C-2.15303407 20.53032179 -2.15303407 20.53032179 -3.64092064 20.53256607 C-7.63131364 19.97958885 -10.24868232 18.12921631 -13.19989014 15.47312927 C-14.90614729 11.9658229 -14.55015374 8.75522792 -13.32489014 5.16062927 C-9.2284309 0.95636848 -5.71552852 0.0408422 0 0 Z " fill="#3E515F" transform="translate(411.32489013671875,460.83937072753906)"/>
<path d="M0 0 C36.63 0 73.26 0 111 0 C117 21 117 21 116 25 C115.505 23.515 115.505 23.515 115 22 C75.07 21.67 35.14 21.34 -6 21 C-3 9 -3 9 0 0 Z " fill="#DAECF4" transform="translate(448,696)"/>
<path d="M0 0 C1.65 0.33 3.3 0.66 5 1 C4.2575 1.86625 4.2575 1.86625 3.5 2.75 C1.63019987 5.10400629 1.63019987 5.10400629 2 9 C2.66 9 3.32 9 4 9 C3.814375 10.0725 3.62875 11.145 3.4375 12.25 C3.0695432 15.40391546 2.95534657 17.09818492 4 20 C3.34 20 2.68 20 2 20 C1.773125 20.763125 1.54625 21.52625 1.3125 22.3125 C-0.39985987 25.81876069 -1.39883907 26.43926779 -5 28 C-8.77813318 28.4418153 -12.5358487 28.39569115 -16.33590698 28.36749268 C-17.49496902 28.37076152 -18.65403105 28.37403036 -19.84821618 28.37739825 C-23.06158106 28.38342095 -26.27459046 28.37598532 -29.48792386 28.36285591 C-32.95494764 28.35195525 -36.42194479 28.35837137 -39.88897705 28.36264038 C-46.67992486 28.36827463 -53.47075977 28.35795683 -60.26168834 28.34235242 C-68.17080823 28.3248142 -76.07990623 28.32339316 -83.98904254 28.32273683 C-98.10290821 28.32104853 -112.21672249 28.30523177 -126.33056641 28.28125 C-140.02327908 28.2580007 -153.71595916 28.24382649 -167.40869141 28.24023438 C-168.25172671 28.24001161 -169.09476202 28.23978884 -169.96334384 28.23955932 C-171.66168053 28.23911672 -173.36001722 28.23867469 -175.05835391 28.23823325 C-175.89615185 28.23801369 -176.73394979 28.23779412 -177.59713554 28.2375679 C-178.85067576 28.23724392 -178.85067576 28.23724392 -180.12954002 28.2369134 C-193.18043626 28.23321005 -206.23132724 28.22184971 -219.2822177 28.2094375 C-224.0107208 28.20500582 -228.73922341 28.20156604 -233.46772777 28.19881538 C-240.97025473 28.19437797 -248.47276231 28.18658777 -255.97527705 28.17204097 C-259.40293345 28.16544554 -262.83057284 28.16036993 -266.25823593 28.15958023 C-269.97555773 28.15783281 -273.69281683 28.14994521 -277.41012573 28.14044189 C-279.03196897 28.14174162 -279.03196897 28.14174162 -280.68657672 28.1430676 C-291.28893252 28.10234804 -291.28893252 28.10234804 -296 27 C-298 24 -298 24 -297.625 20.8125 C-297.41875 19.884375 -297.2125 18.95625 -297 18 C-296.34 18 -295.68 18 -295 18 C-294.34 16.68 -293.68 15.36 -293 14 C-292.21625 14.804375 -291.4325 15.60875 -290.625 16.4375 C-287.29751936 19.68575491 -285.9774089 20.12467727 -281.49150467 20.13142776 C-280.05940623 20.13718948 -280.05940623 20.13718948 -278.59837651 20.1430676 C-277.54217508 20.14220112 -276.48597365 20.14133463 -275.39776611 20.14044189 C-274.28139731 20.14341302 -273.16502851 20.14638414 -272.01483035 20.1494453 C-268.24848622 20.1581642 -264.48217376 20.15964323 -260.71582031 20.16113281 C-258.02578581 20.16575874 -255.33575423 20.17076224 -252.64572144 20.17617798 C-245.31922604 20.18977349 -237.99273611 20.19578808 -230.6662302 20.20018864 C-226.09282121 20.20294933 -221.51941434 20.20718639 -216.94600677 20.21169281 C-204.28771217 20.22388768 -191.62941928 20.23418616 -178.97111893 20.2375679 C-177.75530012 20.23789725 -177.75530012 20.23789725 -176.51491933 20.23823325 C-175.70241253 20.23845153 -174.88990574 20.23866981 -174.05277753 20.2388947 C-172.40627877 20.23933817 -170.75978001 20.23978473 -169.11328125 20.24023438 C-168.29655767 20.2404558 -167.47983409 20.24067723 -166.6383613 20.24090537 C-153.40553674 20.24485308 -140.17276726 20.26230526 -126.93996397 20.2855939 C-113.35938045 20.30930196 -99.77882457 20.32176952 -86.19822001 20.32293582 C-78.57109374 20.32385296 -70.94403921 20.32961479 -63.31693268 20.34775543 C-56.82174844 20.36314916 -50.32665809 20.36828126 -43.83145908 20.36001733 C-40.51728441 20.35610802 -37.20333862 20.35868284 -33.88917923 20.37107468 C-30.29601167 20.38372359 -26.70333217 20.37795534 -23.11016846 20.36749268 C-21.53925064 20.37957728 -21.53925064 20.37957728 -19.93659711 20.39190602 C-14.54910742 20.35512187 -10.62290012 20.1001775 -6 17 C-3.29169298 13.49056022 -2.30122314 9.97196693 -1.3125 5.6875 C-1.06113281 4.61886719 -0.80976562 3.55023437 -0.55078125 2.44921875 C-0.36902344 1.64097656 -0.18726563 0.83273437 0 0 Z " fill="#88BDD8" transform="translate(652,780)"/>
<path d="M0 0 C0.86500122 -0.00426498 1.73000244 -0.00852997 2.62121582 -0.01292419 C4.04029991 -0.01224442 4.04029991 -0.01224442 5.48805237 -0.0115509 C6.48668304 -0.01490952 7.48531372 -0.01826813 8.51420593 -0.02172852 C11.82263932 -0.03124476 15.13102215 -0.03318191 18.43946838 -0.03425598 C20.73488384 -0.03746788 23.03029909 -0.0408319 25.32571411 -0.04434204 C30.1400856 -0.05033485 34.95443913 -0.05218176 39.76881409 -0.05158997 C45.94398625 -0.05148829 52.11904357 -0.06514582 58.2941885 -0.08236217 C63.03560924 -0.09346887 67.7770021 -0.09550959 72.51843452 -0.09498024 C74.79545043 -0.09616216 77.07246701 -0.10059576 79.34947014 -0.10831261 C82.53116326 -0.1180864 85.71260539 -0.1152448 88.89430237 -0.10920715 C90.31035011 -0.11763641 90.31035011 -0.11763641 91.75500488 -0.12623596 C93.05673645 -0.11994423 93.05673645 -0.11994423 94.38476562 -0.11352539 C95.13673942 -0.11407016 95.88871321 -0.11461493 96.66347408 -0.1151762 C99.118188 0.17680958 100.66965836 0.81330166 102.75587463 2.13371277 C105.21252661 5.81869073 105.45673955 8.85343063 104.75587463 13.13371277 C102.96223552 15.94374737 101.73706528 17.64311745 98.75587463 19.13371277 C97.37357948 19.23365867 95.98665076 19.27307653 94.60076904 19.28088379 C93.29487572 19.29161674 93.29487572 19.29161674 91.96260071 19.30256653 C91.00516968 19.30525543 90.04773865 19.30794434 89.06129456 19.31071472 C88.05466263 19.31728592 87.0480307 19.32385712 86.01089478 19.33062744 C82.66937695 19.35038827 79.32790411 19.36202882 75.98634338 19.37199402 C74.8470318 19.37606955 73.70772022 19.38014507 72.53388405 19.3843441 C66.50461126 19.40521601 60.47536131 19.41951329 54.44606018 19.42887878 C48.21143127 19.43994984 41.97715861 19.47435492 35.74265575 19.51405048 C30.95486782 19.54016663 26.16716543 19.54856615 21.37931252 19.55216026 C19.08077397 19.55703859 16.78223956 19.5686878 14.48377037 19.58719826 C11.26843723 19.61148432 8.05403463 19.61064372 4.83863831 19.60368347 C3.4116008 19.62289856 3.4116008 19.62289856 1.95573425 19.64250183 C-2.31058642 19.60880138 -4.61713036 19.52294349 -8.3117981 17.2293396 C-10.82795606 14.50054297 -11.20262868 13.57357766 -11.55662537 9.82121277 C-11.19431406 5.54593931 -10.28266244 4.0854345 -7.24412537 1.13371277 C-4.48268237 0.21323177 -2.84636411 0.00634657 0 0 Z " fill="#354A58" transform="translate(368.24412536621094,324.8662872314453)"/>
<path d="M0 0 C1.65 0.33 3.3 0.66 5 1 C4.2575 1.86625 4.2575 1.86625 3.5 2.75 C1.63019987 5.10400629 1.63019987 5.10400629 2 9 C2.66 9 3.32 9 4 9 C3.814375 10.0725 3.62875 11.145 3.4375 12.25 C3.0695432 15.40391546 2.95534657 17.09818492 4 20 C3.34 20 2.68 20 2 20 C1.773125 20.763125 1.54625 21.52625 1.3125 22.3125 C-0.40066922 25.82041792 -1.39587992 26.43993914 -5 28 C-8.79397988 28.44017584 -12.56742141 28.39134006 -16.38301086 28.36076355 C-18.12901236 28.36460846 -18.12901236 28.36460846 -19.91028661 28.36853105 C-23.13717163 28.37261729 -26.36369493 28.36324491 -29.59053719 28.34819686 C-33.07173592 28.3352394 -36.55291785 28.33962575 -40.03413391 28.34190369 C-46.06422736 28.34347661 -52.09422342 28.33406548 -58.12429237 28.31719017 C-66.84273947 28.29280724 -75.56113948 28.28499563 -84.27961697 28.2812262 C-98.42480064 28.2746606 -112.56993241 28.25469651 -126.71508789 28.22631836 C-140.45564514 28.19878059 -154.1961883 28.17754563 -167.93676758 28.16479492 C-168.7837607 28.16400675 -169.63075383 28.16321858 -170.50341342 28.16240653 C-174.75253639 28.15849141 -179.00165947 28.15470029 -183.25078261 28.15097082 C-218.50055874 28.11987154 -253.75027458 28.0670328 -289 28 C-289 27.67 -289 27.34 -289 27 C-234.55 26.67 -180.1 26.34 -124 26 C-124 25.67 -124 25.34 -124 25 C-126.64 24.67 -129.28 24.34 -132 24 C-132 23.34 -132 22.68 -132 22 C-131.08062432 21.98868687 -131.08062432 21.98868687 -130.1426754 21.9771452 C-115.21910266 21.79250395 -100.29581175 21.5917512 -85.37270164 21.37313366 C-78.15593835 21.26779834 -70.93917655 21.16788825 -63.72216797 21.08081055 C-57.43075816 21.00488694 -51.13958562 20.91872213 -44.84848559 20.82033139 C-41.51831717 20.76860444 -38.18827312 20.72348638 -34.85789108 20.68758202 C-31.13717982 20.64660004 -27.41716558 20.58752147 -23.69677734 20.52416992 C-22.59626038 20.51625427 -21.49574341 20.50833862 -20.36187744 20.50018311 C-14.86695686 20.38708165 -10.70102077 20.18179396 -6 17 C-3.29169298 13.49056022 -2.30122314 9.97196693 -1.3125 5.6875 C-1.06113281 4.61886719 -0.80976562 3.55023437 -0.55078125 2.44921875 C-0.36902344 1.64097656 -0.18726563 0.83273437 0 0 Z " fill="#8BC2DC" transform="translate(652,780)"/>
<path d="M0 0 C1.32212494 -0.01441132 1.32212494 -0.01441132 2.67095947 -0.02911377 C3.62613464 -0.03336365 4.58130981 -0.03761353 5.56542969 -0.04199219 C7.03807281 -0.0505423 7.03807281 -0.0505423 8.54046631 -0.05926514 C10.62185587 -0.06872356 12.70326047 -0.07525245 14.78466797 -0.07910156 C17.96055498 -0.08878562 21.135789 -0.11979238 24.31152344 -0.15136719 C26.33365501 -0.15789937 28.35579122 -0.163149 30.37792969 -0.16699219 C31.32500793 -0.17933899 32.27208618 -0.19168579 33.24786377 -0.20440674 C38.48306428 -0.18683301 42.25170942 0.14303619 46.73730469 3.16113281 C48.88753855 6.3864836 48.9932539 6.95503792 48.61230469 10.59863281 C48.54785156 11.36046875 48.48339844 12.12230469 48.41699219 12.90722656 C47.43671099 16.15792917 46.54088128 17.15854111 43.73730469 19.16113281 C40.08423855 19.75504295 36.46186626 19.67317332 32.76855469 19.62207031 C31.69609497 19.62115387 30.62363525 19.62023743 29.51867676 19.61929321 C27.25247773 19.61325447 24.9862868 19.5975004 22.72021484 19.57275391 C19.25035202 19.53627 15.78155795 19.53173443 12.31152344 19.53222656 C10.10969129 19.52239445 7.90786637 19.51073704 5.70605469 19.49707031 C4.66743286 19.49484467 3.62881104 19.49261902 2.55871582 19.49032593 C1.59091187 19.47756622 0.62310791 19.46480652 -0.37402344 19.45166016 C-1.22355591 19.44403656 -2.07308838 19.43641296 -2.94836426 19.42855835 C-5.51616944 19.13184337 -7.0924411 18.55592702 -9.26269531 17.16113281 C-11.70875236 13.49204724 -12.10215933 10.42494512 -11.26269531 6.16113281 C-7.79112931 1.86735381 -5.43347542 0.04775474 0 0 Z " fill="#3A4D5A" transform="translate(461.2626953125,497.8388671875)"/>
<path d="M0 0 C1.40181015 -0.01641289 1.40181015 -0.01641289 2.8319397 -0.03315735 C4.80717458 -0.04901073 6.7825195 -0.05422229 8.7578125 -0.04956055 C11.77270171 -0.05077466 14.78273061 -0.11052025 17.796875 -0.17382812 C19.71873815 -0.18197102 21.64061979 -0.18664227 23.5625 -0.1875 C24.90808487 -0.22287117 24.90808487 -0.22287117 26.28085327 -0.25895691 C29.91148532 -0.20591483 32.41197687 -0.13204145 35.35162354 2.12313843 C38.2545827 5.32587759 39.3724608 6.83241918 39.6015625 11.26171875 C38.15826059 15.36373469 36.8507729 16.96749174 33.4140625 19.63671875 C30.38346926 20.3283759 27.44828365 20.26788489 24.3515625 20.1953125 C23.04819946 20.19181541 23.04819946 20.19181541 21.71850586 20.18824768 C19.88613023 20.17852836 18.05378385 20.15678293 16.22167969 20.1237793 C13.42337338 20.07438311 10.62682796 20.06229705 7.828125 20.05664062 C6.04425221 20.04255268 4.26039462 20.02634757 2.4765625 20.0078125 C1.64310303 20.0024498 0.80964355 19.9970871 -0.04907227 19.99156189 C-4.27774495 19.90536495 -7.80302817 19.74839278 -11.5859375 17.63671875 C-13.98268523 14.20138034 -14.59589415 12.21420474 -14.5234375 8.01171875 C-12.28760936 -0.03726254 -7.35406975 0.01072573 0 0 Z " fill="#3A4E5D" transform="translate(576.5859375,461.36328125)"/>
<path d="M0 0 C1.03253906 -0.01611328 2.06507813 -0.03222656 3.12890625 -0.04882812 C12.6514609 -0.05497171 12.6514609 -0.05497171 16.5 3.3125 C18.61212504 6.48068756 18.83156464 8.44469252 19.05859375 12.1796875 C18.39061357 14.73015727 17.42472226 16.5019758 15.47729492 18.30029297 C10.65997055 20.76635382 4.7082026 20.01739948 -0.5625 19.9375 C-1.84189453 19.95683594 -3.12128906 19.97617187 -4.43945312 19.99609375 C-6.28120117 19.98642578 -6.28120117 19.98642578 -8.16015625 19.9765625 C-9.28043213 19.97092285 -10.40070801 19.9652832 -11.55493164 19.95947266 C-14.5 19.3125 -14.5 19.3125 -16.83764648 16.98974609 C-18.92348381 13.63047276 -19.42950576 11.26017731 -19.5 7.3125 C-18.21193105 4.09232762 -17.34321511 2.72536163 -14.21679688 1.19458008 C-9.5499688 -0.32062929 -4.86674336 -0.01518959 0 0 Z " fill="#3B4D5C" transform="translate(546.5,497.6875)"/>
<path d="M0 0 C0.95068359 -0.020625 1.90136719 -0.04125 2.88085938 -0.0625 C11.75196487 -0.11209388 11.75196487 -0.11209388 15.6875 3.25 C17.83773386 6.47535079 17.94344921 7.04390511 17.5625 10.6875 C17.49804688 11.44933594 17.43359375 12.21117187 17.3671875 12.99609375 C16.45122178 16.0335203 15.13384102 17.24603016 12.6875 19.25 C8.58111524 20.0705259 4.42923603 19.85279893 0.25 19.8125 C-0.88244141 19.83634766 -2.01488281 19.86019531 -3.18164062 19.88476562 C-11.43152456 19.87018127 -11.43152456 19.87018127 -15.55859375 16.96484375 C-17.70260221 13.64616696 -18.04424198 12.01457837 -17.8125 8.18359375 C-16.96413253 4.90279768 -14.9006706 3.28356261 -12.3125 1.25 C-8.5798817 -0.61630915 -4.10779215 0.02201094 0 0 Z " fill="#3B4C59" transform="translate(414.3125,497.75)"/>
<path d="M0 0 C4.0631161 0.83041789 6.79030098 3.07887988 9.140625 6.4375 C10.03466751 9.5575259 9.7255561 11.08744004 9.140625 14.4375 C7.34698589 17.2475346 6.12181565 18.94690468 3.140625 20.4375 C0.08161326 20.85818924 -2.80695826 20.92778455 -5.859375 20.4375 C-8.859375 18 -8.859375 18 -10.859375 15.4375 C-11.189375 15.1075 -11.519375 14.7775 -11.859375 14.4375 C-12.24324846 9.44714496 -11.94650743 6.43933833 -8.859375 2.4375 C-5.70936961 0.3374964 -3.76148504 -0.11145141 0 0 Z " fill="#354959" transform="translate(638.859375,361.5625)"/>
<path d="M0 0 C2.92823235 1.57278105 5.0553966 3.2947135 7 6 C7.89963956 9.11834524 7.58476119 10.65091316 7 14 C5.20636089 16.8100346 3.98119065 18.50940468 1 20 C-2.05901174 20.42068924 -4.94758326 20.49028455 -8 20 C-11 17.5625 -11 17.5625 -13 15 C-13.33 14.67 -13.66 14.34 -14 14 C-14.17996401 10.21293129 -14.01243237 6.48967322 -11.83984375 3.29296875 C-8.08008059 -0.18606543 -4.92885504 -0.95118255 0 0 Z " fill="#3C5161" transform="translate(372,362)"/>
<path d="M0 0 C2.61399034 1.80504183 3.34084349 3.1098564 5 6 C5.68359886 10.32945942 5.5279283 12.19050994 3.125 15.875 C0.28058592 18.71941408 -1.3887432 19.20354172 -5.3125 19.375 C-9.14506165 19.35031361 -9.82418398 19.13918768 -13 16.625 C-15.92296186 12.78861256 -16.2891058 10.81843003 -16 6 C-15.12393824 3.21253076 -14.14012636 2.12314134 -11.9375 0.1875 C-7.73723329 -1.51048016 -4.30359398 -1.3930259 0 0 Z " fill="#3D515F" transform="translate(648,462)"/>
<path d="M0 0 C2.80703896 1.34040619 3.86054551 2.54745461 6 5 C7.18529129 8.90448895 7.42422013 10.96301745 5.875 14.75 C2.76101379 18.48678346 0.32961106 19.81005556 -4.5 20.5 C-8.88981587 19.87288345 -10.2201049 18.35222645 -13 15 C-13.33 14.67 -13.66 14.34 -14 14 C-14.58968059 6.92383292 -14.58968059 6.92383292 -12.125 3.0625 C-8.49567047 -0.46008454 -4.90185241 -0.79120809 0 0 Z " fill="#3C515E" transform="translate(629,536)"/>
<path d="M0 0 C3.55019527 1.90684316 6.40156479 4.04460343 7.61328125 8.00390625 C7.88596554 12.1097525 7.26969784 13.66642636 4.625 16.9375 C0.98708608 19.79586094 -1.27421854 20.38884517 -5.9609375 20.36328125 C-9.349039 19.75965397 -10.91986899 17.5844052 -13 15 C-13.33 14.67 -13.66 14.34 -14 14 C-14.17996401 10.21293129 -14.01243237 6.48967322 -11.83984375 3.29296875 C-8.08008059 -0.18606543 -4.92885504 -0.95118255 0 0 Z " fill="#3B515C" transform="translate(372,498)"/>
<path d="M0 0 C3.5386994 1.65139305 4.81070153 2.71605229 7 6 C7.60203459 9.09121605 7.60109238 11.90789414 7 15 C4.34972472 18.32983304 2.87970848 19.60097417 -1.2265625 20.47265625 C-5.36721882 20.74269905 -7.5090115 20.31062537 -11.0625 18.0625 C-13.65884755 13.95859581 -13.95259938 10.73725096 -13 6 C-9.39669759 0.23471614 -6.65938858 -0.45148397 0 0 Z " fill="#3E5360" transform="translate(372,461)"/>
<path d="M0 0 C3.0413374 1.63764322 5.28615407 3.09993339 7.4375 5.8125 C8.31325348 9.218208 7.89136765 11.61280292 7 15 C4.94028944 18.02519989 3.48426176 19.66926776 -0.15625 20.48046875 C-4.57676536 20.7530672 -6.44476585 20.43956037 -10 17.625 C-12.91316324 13.80147325 -13.37762733 11.81474852 -13 7 C-11.72311154 4.19084539 -10.68900183 2.49893236 -8.1875 0.6875 C-5.22019177 -0.24508259 -3.10315844 -0.37237901 0 0 Z " fill="#39505F" transform="translate(502,324)"/>
<path d="M0 0 C3.13270435 2.50616348 5.81916595 5.10324764 7 9 C6.84643971 12.68544705 6.44745308 14.4659431 4.0625 17.3125 C0.77420736 20.00292125 -1.68457818 20.3904758 -5.9609375 20.359375 C-9.38006698 19.7567698 -10.93189052 17.63213933 -13 15 C-14.6665436 11.66691281 -14.41627795 8.32452074 -13.3125 4.8125 C-9.8868742 0.08187389 -5.59645731 -0.7994939 0 0 Z " fill="#374E5C" transform="translate(529,324)"/>
<path d="M0 0 C2.97672584 1.77280561 5.42804007 3.85608015 7 7 C7.40417552 9.96395382 7.56382171 12.08904926 5.953125 14.69140625 C4.15636794 16.88450678 2.55808759 18.7209562 0 20 C-4.07909806 20.38482057 -6.29089873 20.44121857 -9.8125 18.25 C-13.21387283 14.75144509 -13.21387283 14.75144509 -14 12 C-13.85713475 7.99977313 -13.61728563 5.75667271 -11.0625 2.625 C-7.32018634 -0.32348955 -4.7592229 -0.47592229 0 0 Z " fill="#3A505D" transform="translate(595,498)"/>
<path d="M0 0 C3.71841281 2.5042372 4.73763895 4.19834125 6.125 8.4375 C5.95182711 13.37292732 4.49213906 14.58722773 1 18 C-2.36145009 20.24096673 -4.05541395 20.28871661 -7.9921875 19.6640625 C-11.66538925 18.44919032 -13.08499534 16.23157036 -15 13 C-15.80349809 8.5004107 -15.31544373 6.57831351 -13.125 2.5625 C-9.50546847 -1.28454494 -4.89617171 -1.06123919 0 0 Z " fill="#3A4F5D" transform="translate(531,400)"/>
<path d="M0 0 C3.04834094 1.30021073 3.81120257 2.24997246 6 5 C6.7937454 8.18073339 6.74347046 10.81287468 6 14 C4.125 17.0625 4.125 17.0625 1 19 C-4.05077166 20.00187438 -7.71974058 19.79376084 -12.125 17.0625 C-14.65315576 12.93317893 -15.03288287 9.72053082 -14 5 C-10.4863065 -0.55390263 -6.12288728 -1.29977081 0 0 Z " fill="#3D525F" transform="translate(373,400)"/>
<path d="M0 0 C1.41678795 0.00424484 1.41678795 0.00424484 2.86219788 0.00857544 C5.85748349 0.01970566 8.85246211 0.0447969 11.84765625 0.0703125 C13.88736545 0.08035155 15.92707937 0.08947578 17.96679688 0.09765625 C22.94803365 0.11962154 27.92904303 0.15410174 32.91015625 0.1953125 C32.95287725 1.86143155 32.95079457 3.52914135 32.91015625 5.1953125 C31.24392047 6.86154828 29.22256713 6.36271941 26.93139648 6.40063477 C25.87037216 6.42057999 24.80934784 6.44052521 23.71617126 6.46107483 C22.56202225 6.47778732 21.40787323 6.49449982 20.21875 6.51171875 C18.45628685 6.5428904 18.45628685 6.5428904 16.65821838 6.57469177 C12.88809301 6.64031374 9.11789543 6.6991308 5.34765625 6.7578125 C2.79882052 6.8009857 0.24999222 6.84459958 -2.29882812 6.88867188 C-8.56242267 6.99600795 -14.82608976 7.0977504 -21.08984375 7.1953125 C-21.41984375 7.8553125 -21.74984375 8.5153125 -22.08984375 9.1953125 C-23.73347509 9.91690674 -25.40034761 10.58882671 -27.08984375 11.1953125 C-18.35720544 2.21317024 -12.26822704 -0.1400194 0 0 Z " fill="#E3F0F4" transform="translate(279.08984375,277.8046875)"/>
<path d="M0 0 C31.35 0 62.7 0 95 0 C95 0.33 95 0.66 95 1 C76.85 1 58.7 1 40 1 C40 1.66 40 2.32 40 3 C44.95 3 49.9 3 55 3 C55 3.33 55 3.66 55 4 C60.61 4.33 66.22 4.66 72 5 C72 5.33 72 5.66 72 6 C56.16 6 40.32 6 24 6 C24 5.67 24 5.34 24 5 C19.05 4.67 14.1 4.34 9 4 C9 3.67 9 3.34 9 3 C13.95 2.67 18.9 2.34 24 2 C16.08 1.67 8.16 1.34 0 1 C0 0.67 0 0.34 0 0 Z " fill="#89B8D0" transform="translate(480,801)"/>
<path d="M0 0 C26.4 0 52.8 0 80 0 C80 0.33 80 0.66 80 1 C78.39318359 1.09087891 78.39318359 1.09087891 76.75390625 1.18359375 C75.35675609 1.26798537 73.95962143 1.35263406 72.5625 1.4375 C71.85544922 1.47681641 71.14839844 1.51613281 70.41992188 1.55664062 C66.91309581 1.47624438 66.91309581 1.47624438 64 3 C62.28681054 3.09881593 60.56955197 3.12798969 58.85351562 3.12939453 C57.75567749 3.13254669 56.65783936 3.13569885 55.5267334 3.13894653 C54.33197388 3.1369223 53.13721436 3.13489807 51.90625 3.1328125 C50.68925415 3.13376923 49.4722583 3.13472595 48.21838379 3.13571167 C45.63924101 3.13639372 43.06009653 3.13453772 40.48095703 3.13037109 C36.51721364 3.12502322 32.55358358 3.13031529 28.58984375 3.13671875 C26.09114558 3.13605797 23.59244748 3.13477682 21.09375 3.1328125 C19.30161072 3.13584885 19.30161072 3.13584885 17.4732666 3.13894653 C16.37542847 3.13579437 15.27759033 3.13264221 14.14648438 3.12939453 C12.68873596 3.12820114 12.68873596 3.12820114 11.20153809 3.12698364 C9 3 9 3 8 2 C6.65252916 1.76924918 5.29622435 1.58846937 3.9375 1.4375 C2.638125 1.293125 1.33875 1.14875 0 1 C0 0.67 0 0.34 0 0 Z " fill="#E8F8FA" transform="translate(456,278)"/>
<path d="M0 0 C3.13270435 2.50616348 5.81916595 5.10324764 7 9 C6.84643971 12.68544705 6.44745308 14.4659431 4.0625 17.3125 C0.73084975 20.03839566 -1.70127878 20.32435666 -6.0234375 20.30078125 C-8.97488672 19.85164767 -10.25851006 18.32198659 -12 16 C-9.36 16.33 -6.72 16.66 -4 17 C-3.67 15.68 -3.34 14.36 -3 13 C-1.68 12.67 -0.36 12.34 1 12 C0.855625 11.278125 0.71125 10.55625 0.5625 9.8125 C0.04166667 7.20833333 -0.47916667 4.60416667 -1 2 C-1.53109375 2.20496094 -2.0621875 2.40992188 -2.609375 2.62109375 C-3.66898438 3.02521484 -3.66898438 3.02521484 -4.75 3.4375 C-5.79414062 3.83775391 -5.79414062 3.83775391 -6.859375 4.24609375 C-8.89059003 4.96146693 -10.9035291 5.51365652 -13 6 C-12 3 -12 3 -9.875 1.3125 C-6.23029514 -0.351387 -3.9684096 -0.56691566 0 0 Z " fill="#42535D" transform="translate(529,324)"/>
<path d="M0 0 C0.66 0.33 1.32 0.66 2 1 C2.49029622 8.23186925 2.49029622 8.23186925 0.125 11.9375 C-3.36237986 15.32230986 -6.03586938 15.38599822 -10.73828125 15.36328125 C-14.29566317 14.7918883 -15.85459738 12.7487971 -18 10 C-18.33 9.67 -18.66 9.34 -19 9 C-19.04092937 6.66702567 -19.04241723 4.33294775 -19 2 C-18.67 2 -18.34 2 -18 2 C-18 3.98 -18 5.96 -18 8 C-17.01 7.67 -16.02 7.34 -15 7 C-14.67 8.32 -14.34 9.64 -14 11 C-12.68 11 -11.36 11 -10 11 C-10 11.66 -10 12.32 -10 13 C-9.38125 12.505 -8.7625 12.01 -8.125 11.5 C-6 10 -6 10 -4 10 C-4.0825 9.278125 -4.165 8.55625 -4.25 7.8125 C-3.92573441 4.16451206 -2.42680413 2.65431702 0 0 Z " fill="#404E5B" transform="translate(646,367)"/>
<path d="M0 0 C1.65 0.33 3.3 0.66 5 1 C4.505 1.5775 4.01 2.155 3.5 2.75 C1.63019987 5.10400629 1.63019987 5.10400629 2 9 C2.66 9 3.32 9 4 9 C3.814375 10.0725 3.62875 11.145 3.4375 12.25 C3.0695432 15.40391546 2.95534657 17.09818492 4 20 C3.34 20 2.68 20 2 20 C1.34 21.32 0.68 22.64 0 24 C-0.268125 23.38125 -0.53625 22.7625 -0.8125 22.125 C-1.95556848 19.7004767 -1.95556848 19.7004767 -5 18 C-4.32683234 14.18538328 -3.24582891 10.66420268 -2 7 C-1.31023368 4.67262521 -0.65454187 2.33764953 0 0 Z " fill="#A0D3E9" transform="translate(652,780)"/>
<path d="M0 0 C20.27672956 -0.90566038 20.27672956 -0.90566038 28.625 6.25 C29.07875 6.8275 29.5325 7.405 30 8 C29.01 7.855625 28.02 7.71125 27 7.5625 C23.00590535 6.99074821 19.00467063 6.49180166 15 6 C14.67 5.01 14.34 4.02 14 3 C11.36 3 8.72 3 6 3 C6 2.34 6 1.68 6 1 C4.02 1 2.04 1 0 1 C0 0.67 0 0.34 0 0 Z " fill="#E0F0F4" transform="translate(714,278)"/>
<path d="M0 0 C0.66 0.99 1.32 1.98 2 3 C-2.95901518 9.43616864 -8.11353275 15.39533171 -14 21 C-14.66 20.67 -15.32 20.34 -16 20 C-13 14 -13 14 -11 13.0625 C-8.65391779 12.1108154 -8.65391779 12.1108154 -8 9 C-8.33 8.34 -8.66 7.68 -9 7 C-8.67 6.01 -8.34 5.02 -8 4 C-7.34 4.33 -6.68 4.66 -6 5 C-2.76643985 3.78741495 -1.99143695 2.98715542 0 0 Z " fill="#3C5563" transform="translate(777,661)"/>
<path d="M0 0 C2.70408823 1.02568864 3.97795525 1.97263411 5.8125 4.25 C7.33352766 7.77237985 7.20989006 9.37032981 6 13 C3.5 15.875 3.5 15.875 1 18 C0.67 18 0.34 18 0 18 C0.08378906 17.39671875 0.16757812 16.7934375 0.25390625 16.171875 C0.35574219 15.37265625 0.45757813 14.5734375 0.5625 13.75 C0.66691406 12.96109375 0.77132812 12.1721875 0.87890625 11.359375 C1.00102173 8.98009281 0.65530174 7.2717127 0 5 C0 3.33333333 0 1.66666667 0 0 Z " fill="#465761" transform="translate(593,537)"/>
<path d="M0 0 C2.32978877 1.45993314 4.0127199 3.06119015 6 5 C5.67 5.66 5.34 6.32 5 7 C4.443125 6.9278125 3.88625 6.855625 3.3125 6.78125 C-1.8359445 6.15508783 -6.81463038 5.90572055 -12 6 C-9.47676535 0.17715081 -6.14768961 -0.7293869 0 0 Z " fill="#3C4D5B" transform="translate(372,362)"/>
<path d="M0 0 C0.33 0 0.66 0 1 0 C1.16826793 7.61703951 1.32815062 15.23422179 1.48217773 22.8515625 C1.5355792 25.44340001 1.5909071 28.03519857 1.64819336 30.62695312 C1.73015556 34.35017498 1.80521101 38.07348149 1.87890625 41.796875 C1.90594131 42.95741394 1.93297638 44.11795288 1.96083069 45.31365967 C1.98092697 46.39447815 2.00102325 47.47529663 2.02172852 48.58886719 C2.04171402 49.53928894 2.06169952 50.48971069 2.08229065 51.46893311 C2.00603565 53.8143576 1.67195963 55.76058694 1 58 C0.34 58 -0.32 58 -1 58 C-0.67 38.86 -0.34 19.72 0 0 Z " fill="#3A5364" transform="translate(787,584)"/>
<path d="M0 0 C2.37339853 1.85744232 2.9940468 2.97847688 3.8125 5.9375 C4.00613718 9.10024068 3.70401547 10.39385869 2 13 C-0.4375 12 -0.4375 12 -3 10 C-3.76381481 7.27285838 -3.85942648 4.85832822 -4 2 C-3.34 1.67 -2.68 1.34 -2 1 C-1.34 1.33 -0.68 1.66 0 2 C0 1.34 0 0.68 0 0 Z " fill="#3A4A58" transform="translate(445,427)"/>
<path d="M0 0 C2.375 1.5 2.375 1.5 4 3 C3.01 3.33 2.02 3.66 1 4 C0.34 3.67 -0.32 3.34 -1 3 C-3.3494053 3.60760482 -5.68529088 4.27129528 -8 5 C-8.33 6.32 -8.66 7.64 -9 9 C-9.99 9 -10.98 9 -12 9 C-12.33 10.32 -12.66 11.64 -13 13 C-13.32405231 8.35525026 -12.88473323 5.70894272 -10 2 C-6.7927364 -0.32250123 -3.88315586 -0.4044954 0 0 Z " fill="#485760" transform="translate(502,324)"/>
<path d="M0 0 C0.60739014 0.4844458 1.21478027 0.9688916 1.84057617 1.46801758 C6.38797239 3.67301806 10.55677591 3.47916906 15.55078125 3.51171875 C17.07169624 3.53864555 17.07169624 3.53864555 18.62333679 3.56611633 C21.85301592 3.62017846 25.08254757 3.65410244 28.3125 3.6875 C30.50587987 3.72067663 32.6992403 3.75516661 34.89257812 3.79101562 C40.26158651 3.87590246 45.63061407 3.94426971 51 4 C51 4.33 51 4.66 51 5 C33.84 5 16.68 5 -1 5 C-0.67 3.35 -0.34 1.7 0 0 Z " fill="#CEDADE" transform="translate(451,513)"/>
<path d="M0 0 C1.27351308 2.54702616 0.80191925 3.4282945 0.0625 6.125 C-0.13214844 6.84945313 -0.32679688 7.57390625 -0.52734375 8.3203125 C-0.68332031 8.87460937 -0.83929688 9.42890625 -1 10 C1.97 10.495 1.97 10.495 5 11 C4.34 11.66 3.68 12.32 3 13 C5.475 13.99 5.475 13.99 8 15 C7.67 15.66 7.34 16.32 7 17 C3.27830274 16.74624791 1.44287976 16.39626084 -1.375 13.875 C-3.41810556 10.26027477 -3.52136601 8.0964472 -3 4 C-1.5 1.5625 -1.5 1.5625 0 0 Z " fill="#40525F" transform="translate(360,327)"/>
<path d="M0 0 C0.309375 0.639375 0.61875 1.27875 0.9375 1.9375 C1.8345163 3.93610821 1.8345163 3.93610821 3 5 C3.04063832 6.66617115 3.042721 8.33388095 3 10 C2.360625 10.226875 1.72125 10.45375 1.0625 10.6875 C-1.25262441 11.83047912 -1.25262441 11.83047912 -1.625 14.4375 C-1.810625 15.7059375 -1.810625 15.7059375 -2 17 C-2.66 17.99 -3.32 18.98 -4 20 C-4.66 19.67 -5.32 19.34 -6 19 C-5.65066406 17.96359375 -5.30132813 16.9271875 -4.94140625 15.859375 C-4.48169068 14.48961023 -4.0220597 13.11981707 -3.5625 11.75 C-3.33240234 11.06808594 -3.10230469 10.38617187 -2.86523438 9.68359375 C-1.79196286 6.47933387 -0.73984392 3.29953381 0 0 Z " fill="#AFD7E9" transform="translate(788,638)"/>
<path d="M0 0 C-0.7425 0.70125 -1.485 1.4025 -2.25 2.125 C-4.97817223 4.97718006 -6.91302954 7.6763063 -9 11 C-9.66 10.67 -10.32 10.34 -11 10 C-10.51683168 2.63168317 -10.51683168 2.63168317 -8.3125 -0.0625 C-5.22597301 -1.31379472 -3.17993913 -0.79498478 0 0 Z " fill="#495661" transform="translate(368,538)"/>
<path d="M0 0 C0.65355469 0.56267578 0.65355469 0.56267578 1.3203125 1.13671875 C5.18607599 4.45859777 9.07657648 7.74642927 13 11 C12.34 11.66 11.68 12.32 11 13 C8.375 12.625 8.375 12.625 6 12 C5.9175 11.401875 5.835 10.80375 5.75 10.1875 C4.77705573 7.34974589 3.55550687 6.50323933 1 5 C0.01 5 -0.98 5 -2 5 C-1.34 3.35 -0.68 1.7 0 0 Z " fill="#B3E2F2" transform="translate(227,672)"/>
<path d="M0 0 C9.57 0 19.14 0 29 0 C29 0.33 29 0.66 29 1 C20.75 1 12.5 1 4 1 C4 2.32 4 3.64 4 5 C3.34 5 2.68 5 2 5 C2 6.65 2 8.3 2 10 C1.67 10 1.34 10 1 10 C0.67 6.7 0.34 3.4 0 0 Z " fill="#B6DDEC" transform="translate(595,696)"/>
<path d="M0 0 C2 3 2 3 2 5 C2.66 5 3.32 5 4 5 C4.28875 5.9075 4.5775 6.815 4.875 7.75 C5.86222908 10.88825839 5.86222908 10.88825839 7.1875 13.1875 C8 15 8 15 7 18 C3.56464897 14.07388453 0.74180528 9.93677383 -1 5 C-0.75 2 -0.75 2 0 0 Z " fill="#395566" transform="translate(215,646)"/>
<path d="M0 0 C4.70357668 3.76286134 4.70357668 3.76286134 5.47265625 6.97265625 C5.63023205 10.63800643 5.30190926 12.62261343 3 15.5 C2.01 16.2425 2.01 16.2425 1 17 C1 16.34 1 15.68 1 15 C0.01 14.67 -0.98 14.34 -2 14 C-0.68 13.34 0.64 12.68 2 12 C1.814375 11.05125 1.62875 10.1025 1.4375 9.125 C1 6 1 6 2 4 C1.34 3.67 0.68 3.34 0 3 C0 2.01 0 1.02 0 0 Z " fill="#4A545B" transform="translate(560,499)"/>
<path d="M0 0 C0.33 0.66 0.66 1.32 1 2 C1.99 2.33 2.98 2.66 4 3 C3.63076923 9.4 3.63076923 9.4 0.4375 12.4375 C-0.7690625 13.2109375 -0.7690625 13.2109375 -2 14 C-3.21065165 10.36804504 -2.62784815 8.93468371 -1.5625 5.3125 C-1.27503906 4.31863281 -0.98757813 3.32476563 -0.69140625 2.30078125 C-0.46324219 1.54152344 -0.23507812 0.78226563 0 0 Z " fill="#374E63" transform="translate(410,705)"/>
<path d="M0 0 C1.5625 1.5625 1.5625 1.5625 3 4 C2.6875 7.75 2.6875 7.75 2 11 C0.68 11.33 -0.64 11.66 -2 12 C-2 11.34 -2 10.68 -2 10 C-2.99 9.67 -3.98 9.34 -5 9 C-4.34 8.67 -3.68 8.34 -3 8 C-3 7.34 -3 6.68 -3 6 C-2.34 6 -1.68 6 -1 6 C-1.020625 5.195625 -1.04125 4.39125 -1.0625 3.5625 C-1 1 -1 1 0 0 Z " fill="#3F5662" transform="translate(507,328)"/>
<path d="M0 0 C0.66 0.33 1.32 0.66 2 1 C2 2.98 2 4.96 2 7 C-1.96 7.99 -5.92 8.98 -10 10 C-6.66666667 6.66666667 -3.33333333 3.33333333 0 0 Z " fill="#46545F" transform="translate(748,648)"/>
<path d="M0 0 C0.66 0 1.32 0 2 0 C2.19622241 4.21878192 1.80230168 7.17010894 0 11 C0.99 11 1.98 11 3 11 C3 13.31 3 15.62 3 18 C2.34 17.01 1.68 16.02 1 15 C0.67 17.31 0.34 19.62 0 22 C-0.33 22 -0.66 22 -1 22 C-1.02716824 19.45826023 -1.04691969 16.91681585 -1.0625 14.375 C-1.07087891 13.66214844 -1.07925781 12.94929688 -1.08789062 12.21484375 C-1.10710296 8.02655562 -0.8267327 4.1271538 0 0 Z " fill="#385669" transform="translate(211,298)"/>
<path d="M0 0 C0.99 0.33 1.98 0.66 3 1 C2.64989059 9.19256018 2.64989059 9.19256018 -0.0625 12.5625 C-0.701875 13.036875 -1.34125 13.51125 -2 14 C-2.99 13.67 -3.98 13.34 -5 13 C-4.34 13 -3.68 13 -3 13 C-2.87625 12.46375 -2.7525 11.9275 -2.625 11.375 C-2 9 -2 9 -0.9375 5.9375 C0.15202009 3.03758274 0.15202009 3.03758274 0 0 Z " fill="#4B575E" transform="translate(507,503)"/>
<path d="M0 0 C2.96175123 0.61277612 4.38058783 1.25372522 7 3 C7 3.99 7 4.98 7 6 C7.99 6 8.98 6 10 6 C10.33 7.65 10.66 9.3 11 11 C10.01 11.495 10.01 11.495 9 12 C7.86966702 10.75482035 6.74594964 9.50363348 5.625 8.25 C4.99851562 7.55390625 4.37203125 6.8578125 3.7265625 6.140625 C2.12494817 4.15491312 1.03479932 2.32045907 0 0 Z " fill="#B4E0F0" transform="translate(765,258)"/>
<path d="M0 0 C2.625 0.375 2.625 0.375 5 1 C5 3.31 5 5.62 5 8 C2.69 7.67 0.38 7.34 -2 7 C-2.125 4.625 -2.125 4.625 -2 2 C-1.34 1.34 -0.68 0.68 0 0 Z " fill="#364F63" transform="translate(635,468)"/>
<path d="M0 0 C3.3 0 6.6 0 10 0 C10 0.66 10 1.32 10 2 C14.29 2 18.58 2 23 2 C23 2.33 23 2.66 23 3 C19.541824 3.0868329 16.08392656 3.14033282 12.625 3.1875 C11.64015625 3.21263672 10.6553125 3.23777344 9.640625 3.26367188 C8.22910156 3.27817383 8.22910156 3.27817383 6.7890625 3.29296875 C5.91975098 3.3086792 5.05043945 3.32438965 4.15478516 3.34057617 C3.44370605 3.22818604 2.73262695 3.1157959 2 3 C1.34 2.01 0.68 1.02 0 0 Z " fill="#37454E" transform="translate(534,514)"/>
<path d="M0 0 C1.65 0.33 3.3 0.66 5 1 C5.33 2.32 5.66 3.64 6 5 C4.68 5 3.36 5 2 5 C1.71125 5.639375 1.4225 6.27875 1.125 6.9375 C0 9 0 9 -2 10 C-2.17942163 6.05272412 -2.09350689 3.4019487 0 0 Z " fill="#4C5E6A" transform="translate(634,464)"/>
<path d="M0 0 C0 0.33 0 0.66 0 1 C-0.88042969 1.26554688 -1.76085937 1.53109375 -2.66796875 1.8046875 C-4.41013672 2.33449219 -4.41013672 2.33449219 -6.1875 2.875 C-7.91033203 3.39707031 -7.91033203 3.39707031 -9.66796875 3.9296875 C-12.50871157 4.84218871 -15.24885465 5.84980364 -18 7 C-18.66 6.34 -19.32 5.68 -20 5 C-13.03566431 1.35201464 -7.80476559 -0.26912985 0 0 Z " fill="#B7DFF0" transform="translate(266,244)"/>
<path d="M0 0 C1.32 0 2.64 0 4 0 C4.33 2.31 4.66 4.62 5 7 C3.35 7.33 1.7 7.66 0 8 C-0.66 7.01 -1.32 6.02 -2 5 C-1.34 5 -0.68 5 0 5 C-0.2784375 4.0409375 -0.2784375 4.0409375 -0.5625 3.0625 C-0.7790625 2.0415625 -0.7790625 2.0415625 -1 1 C-0.67 0.67 -0.34 0.34 0 0 Z " fill="#46575E" transform="translate(532,405)"/>
<path d="M0 0 C0.33 0 0.66 0 1 0 C1 1.98 1 3.96 1 6 C1.99 5.67 2.98 5.34 4 5 C4.33 6.32 4.66 7.64 5 9 C6.32 9.33 7.64 9.66 9 10 C8.67 10.99 8.34 11.98 8 13 C4.12532127 11.74334744 1.89390296 10.68812681 0 7 C-0.1875 3.25 -0.1875 3.25 0 0 Z " fill="#566470" transform="translate(627,369)"/>
<path d="M0 0 C0.85432111 3.10015009 1.18380965 4.94182506 0 8 C-1.4375 9.75 -1.4375 9.75 -3 11 C-3.66 11 -4.32 11 -5 11 C-5.33 11.66 -5.66 12.32 -6 13 C-6.33 12.34 -6.66 11.68 -7 11 C-5.56640625 8.3984375 -5.56640625 8.3984375 -3.5625 5.375 C-2.90378906 4.37210938 -2.24507812 3.36921875 -1.56640625 2.3359375 C-1.04949219 1.56507813 -0.53257812 0.79421875 0 0 Z " fill="#B0D6E9" transform="translate(780,660)"/>
<path d="M0 0 C1.32 1.32 2.64 2.64 4 4 C3.525625 4.7425 3.05125 5.485 2.5625 6.25 C1.22130673 8.61050015 0.487688 10.36648477 0 13 C-0.99 12.67 -1.98 12.34 -3 12 C-2.01 8.04 -1.02 4.08 0 0 Z " fill="#E6EDEF" transform="translate(380,466)"/>
<path d="M0 0 C1.98 0 3.96 0 6 0 C6.33 1.65 6.66 3.3 7 5 C6.01 5.66 5.02 6.32 4 7 C4 6.34 4 5.68 4 5 C2.68 4.67 1.36 4.34 0 4 C0 2.68 0 1.36 0 0 Z " fill="#364A56" transform="translate(623,536)"/>
<path d="M0 0 C2.38564077 0.57584432 4.66682784 1.22227595 7 2 C5.22054913 6.04420651 2.60470327 9.46078487 0 13 C-0.33 12.01 -0.66 11.02 -1 10 C-0.484375 9.401875 0.03125 8.80375 0.5625 8.1875 C1.036875 7.465625 1.51125 6.74375 2 6 C1.28776153 2.77825456 1.28776153 2.77825456 0 0 Z " fill="#3F525E" transform="translate(538,465)"/>
<path d="M0 0 C-0.33 0.99 -0.66 1.98 -1 3 C-2.11375 3.12375 -3.2275 3.2475 -4.375 3.375 C-8.03103677 3.6465813 -8.03103677 3.6465813 -10 6 C-10.99 5.67 -11.98 5.34 -13 5 C-8.49251112 0.34226149 -6.53321609 -0.12098548 0 0 Z " fill="#4C5861" transform="translate(529,324)"/>
<path d="M0 0 C0.66 0 1.32 0 2 0 C1.88610125 1.79240663 1.75852313 3.58394835 1.625 5.375 C1.55539062 6.37273438 1.48578125 7.37046875 1.4140625 8.3984375 C1 11 1 11 -1 13 C-1 12.34 -1 11.68 -1 11 C-1.66 11 -2.32 11 -3 11 C-2.69217504 9.35328588 -2.37860766 7.70764424 -2.0625 6.0625 C-1.88847656 5.14597656 -1.71445312 4.22945312 -1.53515625 3.28515625 C-1 1 -1 1 0 0 Z " fill="#495761" transform="translate(755,631)"/>
<path d="M0 0 C0.33 0.99 0.66 1.98 1 3 C1.66 3 2.32 3 3 3 C3 3.66 3 4.32 3 5 C1.02 5 -0.96 5 -3 5 C-3 6.98 -3 8.96 -3 11 C-3.66 11 -4.32 11 -5 11 C-4.50769231 4.6 -4.50769231 4.6 -1.9375 1.5625 C-0.9784375 0.7890625 -0.9784375 0.7890625 0 0 Z " fill="#495561" transform="translate(532,499)"/>
<path d="M0 0 C2.64 0 5.28 0 8 0 C8.66 1.65 9.32 3.3 10 5 C9.01 5.495 9.01 5.495 8 6 C4.86049226 4.38999603 2.36595933 2.61500768 0 0 Z M9 1 C9.66 1.66 10.32 2.32 11 3 C10.34 3 9.68 3 9 3 C9 2.34 9 1.68 9 1 Z " fill="#EFF3F4" transform="translate(372,362)"/>
<path d="M0 0 C0.56203125 0.37898437 1.1240625 0.75796875 1.703125 1.1484375 C1.373125 1.8084375 1.043125 2.4684375 0.703125 3.1484375 C-0.01875 3.0865625 -0.740625 3.0246875 -1.484375 2.9609375 C-4.82546474 3.18367682 -6.56720255 4.2766621 -9.296875 6.1484375 C-9.956875 5.4884375 -10.616875 4.8284375 -11.296875 4.1484375 C-9.89233857 3.25409593 -8.47265631 2.38350558 -7.046875 1.5234375 C-6.25796875 1.03617188 -5.4690625 0.54890625 -4.65625 0.046875 C-2.296875 -0.8515625 -2.296875 -0.8515625 0 0 Z " fill="#3B586A" transform="translate(253.296875,249.8515625)"/>
<path d="M0 0 C3.63 0 7.26 0 11 0 C11.33 1.98 11.66 3.96 12 6 C11.505 5.525625 11.01 5.05125 10.5 4.5625 C7.00531349 2.37832093 4.09033064 2.34086089 0 2 C0 1.34 0 0.68 0 0 Z " fill="#A2D6E9" transform="translate(344,780)"/>
<path d="M0 0 C1.2065625 0.2475 1.2065625 0.2475 2.4375 0.5 C4.97658116 1.26597109 4.97658116 1.26597109 7 0 C7.33 1.32 7.66 2.64 8 4 C7.34 4 6.68 4 6 4 C5.34 5.32 4.68 6.64 4 8 C3.731875 7.401875 3.46375 6.80375 3.1875 6.1875 C2.01506533 4.02775192 0.80630718 2.64209744 -1 1 C-0.67 0.67 -0.34 0.34 0 0 Z " fill="#9BD4EF" transform="translate(648,796)"/>
<path d="M0 0 C3.63 0.33 7.26 0.66 11 1 C11.33 1.99 11.66 2.98 12 4 C4.61538462 4.49230769 4.61538462 4.49230769 1.5 2 C1.005 1.34 0.51 0.68 0 0 Z " fill="#4D5B63" transform="translate(517,340)"/>
<path d="M0 0 C0.66 0.99 1.32 1.98 2 3 C1.125 6.6875 1.125 6.6875 0 10 C-0.99 9.34 -1.98 8.68 -3 8 C-3.375 5.5625 -3.375 5.5625 -3 3 C-1.5 1.1875 -1.5 1.1875 0 0 Z " fill="#B2DEEE" transform="translate(212,287)"/>
<path d="M0 0 C0.66 0.33 1.32 0.66 2 1 C2 4 2 4 0.625 5.4375 C0.08875 5.953125 -0.4475 6.46875 -1 7 C-2.17574711 9.09989652 -2.17574711 9.09989652 -3 11 C-4.04434887 7.67707176 -4.2162055 6.43241099 -2.625 3.25 C-1 1 -1 1 0 0 Z " fill="#525D63" transform="translate(401,426)"/>
<path d="M0 0 C0.66 0.99 1.32 1.98 2 3 C-2.37934119 2.48041715 -6.68803391 1.94324258 -11 1 C-11 0.67 -11 0.34 -11 0 C-7.02990455 -1.05090762 -3.98145507 -1.06172135 0 0 Z " fill="#48545E" transform="translate(607,364)"/>
<path d="M0 0 C0.66 0.66 1.32 1.32 2 2 C1.625 5.625 1.625 5.625 1 9 C0.01 9 -0.98 9 -2 9 C-2 5.61976483 -1.12544378 3.16531063 0 0 Z " fill="#505B65" transform="translate(447,430)"/>
<path d="M0 0 C0.33 1.32 0.66 2.64 1 4 C-1.25 6.0625 -1.25 6.0625 -4 8 C-6.3125 7.75 -6.3125 7.75 -8 7 C-7.01 7 -6.02 7 -5 7 C-4.9175 6.21625 -4.835 5.4325 -4.75 4.625 C-4 2 -4 2 -1.9375 0.6875 C-1.298125 0.460625 -0.65875 0.23375 0 0 Z " fill="#404D53" transform="translate(534,411)"/>
<path d="M0 0 C1.32 0.66 2.64 1.32 4 2 C4 4.64 4 7.28 4 10 C3.01 10.495 3.01 10.495 2 11 C1.67 8.69 1.34 6.38 1 4 C0.34 4 -0.32 4 -1 4 C-0.67 2.68 -0.34 1.36 0 0 Z " fill="#31424B" transform="translate(469,328)"/>
<path d="M0 0 C0.66 0.99 1.32 1.98 2 3 C0.68 5.64 -0.64 8.28 -2 11 C-2.66 9.68 -3.32 8.36 -4 7 C-3.06434658 4.35435928 -1.54985485 2.37036624 0 0 Z " fill="#BBE5F3" transform="translate(216,279)"/>
<path d="M0 0 C-2.35277269 2.72426311 -4.62496331 3.8141763 -8 5 C-7.625 2.5625 -7.625 2.5625 -7 0 C-4.3333581 -1.33332095 -2.83319697 -0.67102033 0 0 Z " fill="#BEE5F5" transform="translate(248,250)"/>
<path d="M0 0 C3.79557881 0 5.62902617 0.50178941 9 2 C9 2.99 9 3.98 9 5 C8.01 5.33 7.02 5.66 6 6 C2.8125 3.625 2.8125 3.625 0 1 C0 0.67 0 0.34 0 0 Z " fill="#404F5B" transform="translate(258,657)"/>
<path d="M0 0 C0.33 0 0.66 0 1 0 C1.33 1.98 1.66 3.96 2 6 C1.34 6 0.68 6 0 6 C-0.33 7.32 -0.66 8.64 -1 10 C-1.66 9.34 -2.32 8.68 -3 8 C-2.34 7.01 -1.68 6.02 -1 5 C-0.61500109 3.34450469 -0.27206865 1.6777567 0 0 Z M-3 9 C-4 12 -4 12 -6 13 C-6.33 12.01 -6.66 11.02 -7 10 C-5 9 -5 9 -3 9 Z " fill="#E7F0F1" transform="translate(379,507)"/>
<path d="M0 0 C0.66 0 1.32 0 2 0 C2.33 0.33 2.66 0.66 3 1 C3.639375 0.814375 4.27875 0.62875 4.9375 0.4375 C5.618125 0.293125 6.29875 0.14875 7 0 C7.66 0.66 8.32 1.32 9 2 C6.525 3.485 6.525 3.485 4 5 C2 3.625 2 3.625 0 2 C0 1.34 0 0.68 0 0 Z " fill="#44545F" transform="translate(250,281)"/>
<path d="M0 0 C0.99 0.33 1.98 0.66 3 1 C2.67 1.66 2.34 2.32 2 3 C3.32 3.33 4.64 3.66 6 4 C6 4.66 6 5.32 6 6 C6.66 6.33 7.32 6.66 8 7 C4 7 4 7 1.75 5.1875 C0 3 0 3 0 0 Z " fill="#34556D" transform="translate(359,792)"/>
<path d="M0 0 C-0.33 1.32 -0.66 2.64 -1 4 C-3.97 3.505 -3.97 3.505 -7 3 C-6.67 2.01 -6.34 1.02 -6 0 C-3.42525708 -0.99667468 -2.51072708 -1.25536354 0 0 Z " fill="#3B5867" transform="translate(269,691)"/>
<path d="M0 0 C1.31625194 2.63250388 0.74813658 3.80179056 0.0625 6.625 C-0.13214844 7.44226563 -0.32679688 8.25953125 -0.52734375 9.1015625 C-0.68332031 9.72804688 -0.83929688 10.35453125 -1 11 C-1.66 11 -2.32 11 -3 11 C-3.36923077 4.6 -3.36923077 4.6 -1.5 1.5625 C-1.005 1.046875 -0.51 0.53125 0 0 Z " fill="#4A5A65" transform="translate(360,327)"/>
<path d="M0 0 C1.03159626 3.09478879 0.97482862 4.52631393 0.5625 7.6875 C0.46066406 8.49574219 0.35882813 9.30398438 0.25390625 10.13671875 C0.17011719 10.75160156 0.08632813 11.36648438 0 12 C-0.66 11.67 -1.32 11.34 -2 11 C-2.05399736 9.54207116 -2.09279177 8.08357288 -2.125 6.625 C-2.15980469 5.40683594 -2.15980469 5.40683594 -2.1953125 4.1640625 C-2 2 -2 2 0 0 Z " fill="#33556B" transform="translate(358,778)"/>
<path d="M0 0 C0.33 0.99 0.66 1.98 1 3 C-0.6454378 4.68762851 -2.31288577 6.3540349 -4 8 C-4.33 8 -4.66 8 -5 8 C-5.3125 5.6875 -5.3125 5.6875 -5 3 C-2.5 1.1875 -2.5 1.1875 0 0 Z " fill="#424F55" transform="translate(598,547)"/>
<path d="M0 0 C3.55780196 0.60990891 6.6828589 1.5783681 10 3 C8.3125 4.125 8.3125 4.125 6 5 C3.3125 4.3125 3.3125 4.3125 1 3 C0.67 2.01 0.34 1.02 0 0 Z " fill="#4A5862" transform="translate(360,513)"/>
<path d="M0 0 C0.33 0.66 0.66 1.32 1 2 C1.66 2.33 2.32 2.66 3 3 C0.83312509 5.27521866 -1.45620509 7.15794162 -4 9 C-4.99 8.34 -5.98 7.68 -7 7 C-6.21625 6.5875 -5.4325 6.175 -4.625 5.75 C-1.94108344 3.9607223 -1.11901051 2.95011861 0 0 Z " fill="#E6ECEF" transform="translate(509,510)"/>
<path d="M0 0 C1.5625 1.625 1.5625 1.625 3 4 C2.6875 7.25 2.6875 7.25 2 10 C-0.13262124 6.80106814 -0.59021548 4.77001757 -1 1 C-0.67 0.67 -0.34 0.34 0 0 Z " fill="#536169" transform="translate(507,328)"/>
<path d="M0 0 C1.32 0.66 2.64 1.32 4 2 C2.68 3.32 1.36 4.64 0 6 C-0.99 5.67 -1.98 5.34 -3 5 C-2.67 3.68 -2.34 2.36 -2 1 C-1.34 1.33 -0.68 1.66 0 2 C0 1.34 0 0.68 0 0 Z " fill="#B3DFEE" transform="translate(228,261)"/>
<path d="M0 0 C4.66666667 2.33333333 4.66666667 2.33333333 6 5 C3.69 5 1.38 5 -1 5 C-1 4.34 -1 3.68 -1 3 C-1.66 2.34 -2.32 1.68 -3 1 C-2.01 0.67 -1.02 0.34 0 0 Z " fill="#405B6C" transform="translate(642,770)"/>
<path d="M0 0 C3 1 3 1 4.1875 3.0625 C4.455625 3.701875 4.72375 4.34125 5 5 C4.01 5.66 3.02 6.32 2 7 C0.4375 5.1875 0.4375 5.1875 -1 3 C-0.67 2.01 -0.34 1.02 0 0 Z " fill="#3B5667" transform="translate(234,674)"/>
<path d="M0 0 C2.475 0.495 2.475 0.495 5 1 C4.01 2.98 3.02 4.96 2 7 C0 4 0 4 0 0 Z " fill="#EDF1F3" transform="translate(747,641)"/>
<path d="M0 0 C0.66 0.33 1.32 0.66 2 1 C0.8905928 4.48670834 -0.26337666 7.77484237 -2 11 C-3.14947895 7.44706507 -3.0868937 6.20023331 -1.5625 2.6875 C-1.046875 1.800625 -0.53125 0.91375 0 0 Z " fill="#495862" transform="translate(584,500)"/>
<path d="M0 0 C0.66 1.32 1.32 2.64 2 4 C1.01 4.495 1.01 4.495 0 5 C-0.33 5.99 -0.66 6.98 -1 8 C-1.33 7.34 -1.66 6.68 -2 6 C-2.66 5.67 -3.32 5.34 -4 5 C-2 2 -2 2 0 0 Z " fill="#334E66" transform="translate(365,467)"/>
<path d="M0 0 C1.75 1.4375 1.75 1.4375 3 3 C0.525 4.485 0.525 4.485 -2 6 C-2 5.01 -2 4.02 -2 3 C-2.66 2.34 -3.32 1.68 -4 1 C-2.1875 0.3125 -2.1875 0.3125 0 0 Z " fill="#3E5564" transform="translate(758,680)"/>
<path d="M0 0 C2 1.375 2 1.375 4 3 C4 3.66 4 4.32 4 5 C3.34 5 2.68 5 2 5 C2.33 5.99 2.66 6.98 3 8 C2.34 8 1.68 8 1 8 C0.34 5.69 -0.32 3.38 -1 1 C-0.67 0.67 -0.34 0.34 0 0 Z " fill="#35434E" transform="translate(249,646)"/>
<path d="M0 0 C1.22589844 0.15275391 1.22589844 0.15275391 2.4765625 0.30859375 C3.41628906 0.43427734 3.41628906 0.43427734 4.375 0.5625 C0.93049263 2.85883824 -1.56312283 3.10266485 -5.625 3.5625 C-5.955 2.5725 -6.285 1.5825 -6.625 0.5625 C-4.10446405 -0.69776798 -2.7707902 -0.35624445 0 0 Z " fill="#404E5C" transform="translate(459.625,499.4375)"/>
<path d="M0 0 C0.66 0 1.32 0 2 0 C2.33 1.98 2.66 3.96 3 6 C1.35 6.33 -0.3 6.66 -2 7 C-1.34 4.69 -0.68 2.38 0 0 Z " fill="#A0C9DD" transform="translate(650,787)"/>
<path d="M0 0 C0.99 0 1.98 0 3 0 C2.25 4.75 2.25 4.75 0 7 C-0.33 6.01 -0.66 5.02 -1 4 C-1.99 4.495 -1.99 4.495 -3 5 C-1.125 1.125 -1.125 1.125 0 0 Z " fill="#3A5364" transform="translate(603,736)"/>
<path d="M0 0 C0.33 0.66 0.66 1.32 1 2 C1.99 2.33 2.98 2.66 4 3 C3 6 3 6 1 7 C0.34 6.67 -0.32 6.34 -1 6 C-0.67 4.02 -0.34 2.04 0 0 Z " fill="#40586A" transform="translate(410,705)"/>
<path d="M0 0 C0.33 0.66 0.66 1.32 1 2 C0.01 3.485 0.01 3.485 -1 5 C-3.97 4.505 -3.97 4.505 -7 4 C-4.61426621 2.10786631 -2.92824652 0.97608217 0 0 Z " fill="#AEDDEB" transform="translate(750,689)"/>
<path d="M0 0 C0.66 0.66 1.32 1.32 2 2 C1.401875 2.268125 0.80375 2.53625 0.1875 2.8125 C-1.97224808 3.98493467 -3.35790256 5.19369282 -5 7 C-5.33 6.01 -5.66 5.02 -6 4 C-3.94766315 1.7522025 -2.99332739 0.9977758 0 0 Z " fill="#E8EEF1" transform="translate(455,497)"/>
<path d="M0 0 C0.66 0.33 1.32 0.66 2 1 C1.34 3.31 0.68 5.62 0 8 C-0.66 7.67 -1.32 7.34 -2 7 C-1.125 2.25 -1.125 2.25 0 0 Z " fill="#45535C" transform="translate(646,367)"/>
<path d="M0 0 C1.9375 0.3125 1.9375 0.3125 4 1 C4.33 1.99 4.66 2.98 5 4 C2.69 4 0.38 4 -2 4 C-1.34 2.68 -0.68 1.36 0 0 Z " fill="#304351" transform="translate(362,364)"/>
<path d="M0 0 C1.98 0.495 1.98 0.495 4 1 C3.67 1.99 3.34 2.98 3 4 C2.01 4 1.02 4 0 4 C-0.33 5.32 -0.66 6.64 -1 8 C-1.125 2.25 -1.125 2.25 0 0 Z " fill="#54656D" transform="translate(490,329)"/>
<path d="M0 0 C1.32 0 2.64 0 4 0 C3.25 4.75 3.25 4.75 1 7 C0.67 4.69 0.34 2.38 0 0 Z " fill="#B7DFEE" transform="translate(218,272)"/>
<path d="M0 0 C0.99 0.33 1.98 0.66 3 1 C1.75023244 4.65316671 1.32901247 5.78065836 -2 8 C-1.34 5.36 -0.68 2.72 0 0 Z " fill="#D6E2EB" transform="translate(444,709)"/>
<path d="M0 0 C-0.66 1.65 -1.32 3.3 -2 5 C-3.98 4.01 -5.96 3.02 -8 2 C-4.77208445 -0.1519437 -3.71599191 -0.20086443 0 0 Z " fill="#3C5B6D" transform="translate(248,682)"/>
<path d="M0 0 C0.66 0.99 1.32 1.98 2 3 C-0.97 5.475 -0.97 5.475 -4 8 C-4.66 7.34 -5.32 6.68 -6 6 C-5.195625 5.38125 -4.39125 4.7625 -3.5625 4.125 C-0.96125481 2.25835959 -0.96125481 2.25835959 0 0 Z " fill="#ECF2F3" transform="translate(598,550)"/>
<path d="M0 0 C3.96 0.33 7.92 0.66 12 1 C12 1.33 12 1.66 12 2 C10.37585622 2.19477739 8.75063577 2.38059458 7.125 2.5625 C6.22007812 2.66691406 5.31515625 2.77132813 4.3828125 2.87890625 C2 3 2 3 0 2 C0 1.34 0 0.68 0 0 Z " fill="#364352" transform="translate(403,499)"/>
<path d="M0 0 C0.99 0 1.98 0 3 0 C1.75023244 3.65316671 1.32901247 4.78065836 -2 7 C-1.125 2.25 -1.125 2.25 0 0 Z " fill="#4E5F68" transform="translate(650,473)"/>
<path d="M0 0 C0.66 0.66 1.32 1.32 2 2 C1.01 2.33 0.02 2.66 -1 3 C-1 3.99 -1 4.98 -1 6 C-1.99 6.33 -2.98 6.66 -4 7 C-4 5.35 -4 3.7 -4 2 C-3.34 1.67 -2.68 1.34 -2 1 C-1.34 1.33 -0.68 1.66 0 2 C0 1.34 0 0.68 0 0 Z " fill="#41525E" transform="translate(445,427)"/>
<path d="M0 0 C0.66 0.33 1.32 0.66 2 1 C1.1875 3.4375 1.1875 3.4375 0 6 C-0.99 6.33 -1.98 6.66 -3 7 C-3.33 5.68 -3.66 4.36 -4 3 C-2.68 2.01 -1.36 1.02 0 0 Z " fill="#42505A" transform="translate(247,294)"/>
<path d="M0 0 C2 3 2 3 2 5 C0.35 5.33 -1.3 5.66 -3 6 C-2.625 3.5625 -2.625 3.5625 -2 1 C-1.34 0.67 -0.68 0.34 0 0 Z " fill="#9BC8DE" transform="translate(356,789)"/>
<path d="M0 0 C1.32 1.32 2.64 2.64 4 4 C2.68 4.33 1.36 4.66 0 5 C-0.66 3.68 -1.32 2.36 -2 1 C-1.34 0.67 -0.68 0.34 0 0 Z " fill="#46515A" transform="translate(253,650)"/>
<path d="M0 0 C0.66 1.32 1.32 2.64 2 4 C0.35 5.98 -1.3 7.96 -3 10 C-3.66 9.67 -4.32 9.34 -5 9 C-4.0409375 7.88625 -4.0409375 7.88625 -3.0625 6.75 C-1.21666593 4.2888879 -0.43930826 2.96533074 0 0 Z " fill="#D9E3E6" transform="translate(602,507)"/>
<path d="M0 0 C-0.33 1.32 -0.66 2.64 -1 4 C-4 3 -4 3 -6 0 C-3.50907189 -1.24546405 -2.58919267 -0.7767578 0 0 Z " fill="#414E56" transform="translate(508,501)"/>
<path d="M0 0 C1.98 0 3.96 0 6 0 C5.34 1.32 4.68 2.64 4 4 C3.01 4 2.02 4 1 4 C0.67 2.68 0.34 1.36 0 0 Z " fill="#49575F" transform="translate(372,376)"/>
<path d="M0 0 C1.32 0.66 2.64 1.32 4 2 C4 2.99 4 3.98 4 5 C2.02 4.34 0.04 3.68 -2 3 C-1.34 2.67 -0.68 2.34 0 2 C0 1.34 0 0.68 0 0 Z " fill="#364751" transform="translate(373,364)"/>
</svg>
